<mxfile host="app.diagrams.net" agent="Mozilla/5.0 (Macintosh; Intel Mac OS X 10_15_7) AppleWebKit/537.36 (KHTML, like Gecko) Chrome/130.0.0.0 Safari/537.36" version="24.8.3">
  <diagram id="R2lEEEUBdFMjLlhIrx00" name="Page-1">
    <mxGraphModel dx="3196" dy="840" grid="1" gridSize="10" guides="1" tooltips="1" connect="1" arrows="1" fold="1" page="1" pageScale="1" pageWidth="1920" pageHeight="1200" math="0" shadow="0" extFonts="Permanent Marker^https://fonts.googleapis.com/css?family=Permanent+Marker">
      <root>
        <mxCell id="0" />
        <mxCell id="1" parent="0" />
        <mxCell id="C-vyLk0tnHw3VtMMgP7b-23" value="users" style="shape=table;startSize=30;container=1;collapsible=1;childLayout=tableLayout;fixedRows=1;rowLines=0;fontStyle=1;align=center;resizeLast=1;" parent="1" vertex="1">
          <mxGeometry x="-340" y="190" width="335" height="280" as="geometry" />
        </mxCell>
        <mxCell id="C-vyLk0tnHw3VtMMgP7b-24" value="" style="shape=partialRectangle;collapsible=0;dropTarget=0;pointerEvents=0;fillColor=none;points=[[0,0.5],[1,0.5]];portConstraint=eastwest;top=0;left=0;right=0;bottom=1;" parent="C-vyLk0tnHw3VtMMgP7b-23" vertex="1">
          <mxGeometry y="30" width="335" height="30" as="geometry" />
        </mxCell>
        <mxCell id="C-vyLk0tnHw3VtMMgP7b-25" value="PK" style="shape=partialRectangle;overflow=hidden;connectable=0;fillColor=none;top=0;left=0;bottom=0;right=0;fontStyle=1;" parent="C-vyLk0tnHw3VtMMgP7b-24" vertex="1">
          <mxGeometry width="30" height="30" as="geometry">
            <mxRectangle width="30" height="30" as="alternateBounds" />
          </mxGeometry>
        </mxCell>
        <mxCell id="C-vyLk0tnHw3VtMMgP7b-26" value="id UUID NOT NULL " style="shape=partialRectangle;overflow=hidden;connectable=0;fillColor=none;top=0;left=0;bottom=0;right=0;align=left;spacingLeft=6;fontStyle=5;" parent="C-vyLk0tnHw3VtMMgP7b-24" vertex="1">
          <mxGeometry x="30" width="305" height="30" as="geometry">
            <mxRectangle width="305" height="30" as="alternateBounds" />
          </mxGeometry>
        </mxCell>
        <mxCell id="C-vyLk0tnHw3VtMMgP7b-27" value="" style="shape=partialRectangle;collapsible=0;dropTarget=0;pointerEvents=0;fillColor=none;points=[[0,0.5],[1,0.5]];portConstraint=eastwest;top=0;left=0;right=0;bottom=0;" parent="C-vyLk0tnHw3VtMMgP7b-23" vertex="1">
          <mxGeometry y="60" width="335" height="30" as="geometry" />
        </mxCell>
        <mxCell id="C-vyLk0tnHw3VtMMgP7b-28" value="" style="shape=partialRectangle;overflow=hidden;connectable=0;fillColor=none;top=0;left=0;bottom=0;right=0;" parent="C-vyLk0tnHw3VtMMgP7b-27" vertex="1">
          <mxGeometry width="30" height="30" as="geometry">
            <mxRectangle width="30" height="30" as="alternateBounds" />
          </mxGeometry>
        </mxCell>
        <mxCell id="C-vyLk0tnHw3VtMMgP7b-29" value="name VARCHAR(50) NOT NULL" style="shape=partialRectangle;overflow=hidden;connectable=0;fillColor=none;top=0;left=0;bottom=0;right=0;align=left;spacingLeft=6;" parent="C-vyLk0tnHw3VtMMgP7b-27" vertex="1">
          <mxGeometry x="30" width="305" height="30" as="geometry">
            <mxRectangle width="305" height="30" as="alternateBounds" />
          </mxGeometry>
        </mxCell>
        <mxCell id="456QCOrPQGaGzlS-YTAY-1" style="shape=partialRectangle;collapsible=0;dropTarget=0;pointerEvents=0;fillColor=none;points=[[0,0.5],[1,0.5]];portConstraint=eastwest;top=0;left=0;right=0;bottom=0;" parent="C-vyLk0tnHw3VtMMgP7b-23" vertex="1">
          <mxGeometry y="90" width="335" height="30" as="geometry" />
        </mxCell>
        <mxCell id="456QCOrPQGaGzlS-YTAY-2" style="shape=partialRectangle;overflow=hidden;connectable=0;fillColor=none;top=0;left=0;bottom=0;right=0;" parent="456QCOrPQGaGzlS-YTAY-1" vertex="1">
          <mxGeometry width="30" height="30" as="geometry">
            <mxRectangle width="30" height="30" as="alternateBounds" />
          </mxGeometry>
        </mxCell>
        <mxCell id="456QCOrPQGaGzlS-YTAY-3" value="email VARCHAR(50) NOT NULL UNIQUE" style="shape=partialRectangle;overflow=hidden;connectable=0;fillColor=none;top=0;left=0;bottom=0;right=0;align=left;spacingLeft=6;" parent="456QCOrPQGaGzlS-YTAY-1" vertex="1">
          <mxGeometry x="30" width="305" height="30" as="geometry">
            <mxRectangle width="305" height="30" as="alternateBounds" />
          </mxGeometry>
        </mxCell>
        <mxCell id="456QCOrPQGaGzlS-YTAY-4" style="shape=partialRectangle;collapsible=0;dropTarget=0;pointerEvents=0;fillColor=none;points=[[0,0.5],[1,0.5]];portConstraint=eastwest;top=0;left=0;right=0;bottom=0;" parent="C-vyLk0tnHw3VtMMgP7b-23" vertex="1">
          <mxGeometry y="120" width="335" height="30" as="geometry" />
        </mxCell>
        <mxCell id="456QCOrPQGaGzlS-YTAY-5" style="shape=partialRectangle;overflow=hidden;connectable=0;fillColor=none;top=0;left=0;bottom=0;right=0;" parent="456QCOrPQGaGzlS-YTAY-4" vertex="1">
          <mxGeometry width="30" height="30" as="geometry">
            <mxRectangle width="30" height="30" as="alternateBounds" />
          </mxGeometry>
        </mxCell>
        <mxCell id="456QCOrPQGaGzlS-YTAY-6" value="password VARCHAR(150) NOT NULL " style="shape=partialRectangle;overflow=hidden;connectable=0;fillColor=none;top=0;left=0;bottom=0;right=0;align=left;spacingLeft=6;" parent="456QCOrPQGaGzlS-YTAY-4" vertex="1">
          <mxGeometry x="30" width="305" height="30" as="geometry">
            <mxRectangle width="305" height="30" as="alternateBounds" />
          </mxGeometry>
        </mxCell>
        <mxCell id="456QCOrPQGaGzlS-YTAY-144" style="shape=partialRectangle;collapsible=0;dropTarget=0;pointerEvents=0;fillColor=none;points=[[0,0.5],[1,0.5]];portConstraint=eastwest;top=0;left=0;right=0;bottom=0;" parent="C-vyLk0tnHw3VtMMgP7b-23" vertex="1">
          <mxGeometry y="150" width="335" height="30" as="geometry" />
        </mxCell>
        <mxCell id="456QCOrPQGaGzlS-YTAY-145" style="shape=partialRectangle;overflow=hidden;connectable=0;fillColor=none;top=0;left=0;bottom=0;right=0;" parent="456QCOrPQGaGzlS-YTAY-144" vertex="1">
          <mxGeometry width="30" height="30" as="geometry">
            <mxRectangle width="30" height="30" as="alternateBounds" />
          </mxGeometry>
        </mxCell>
        <mxCell id="456QCOrPQGaGzlS-YTAY-146" value="img_url VARCHAR(2000) " style="shape=partialRectangle;overflow=hidden;connectable=0;fillColor=none;top=0;left=0;bottom=0;right=0;align=left;spacingLeft=6;" parent="456QCOrPQGaGzlS-YTAY-144" vertex="1">
          <mxGeometry x="30" width="305" height="30" as="geometry">
            <mxRectangle width="305" height="30" as="alternateBounds" />
          </mxGeometry>
        </mxCell>
        <mxCell id="456QCOrPQGaGzlS-YTAY-76" style="shape=partialRectangle;collapsible=0;dropTarget=0;pointerEvents=0;fillColor=none;points=[[0,0.5],[1,0.5]];portConstraint=eastwest;top=0;left=0;right=0;bottom=0;" parent="C-vyLk0tnHw3VtMMgP7b-23" vertex="1">
          <mxGeometry y="180" width="335" height="30" as="geometry" />
        </mxCell>
        <mxCell id="456QCOrPQGaGzlS-YTAY-77" value="" style="shape=partialRectangle;overflow=hidden;connectable=0;fillColor=none;top=0;left=0;bottom=0;right=0;" parent="456QCOrPQGaGzlS-YTAY-76" vertex="1">
          <mxGeometry width="30" height="30" as="geometry">
            <mxRectangle width="30" height="30" as="alternateBounds" />
          </mxGeometry>
        </mxCell>
        <mxCell id="456QCOrPQGaGzlS-YTAY-78" value="type type_user NOT NULL" style="shape=partialRectangle;overflow=hidden;connectable=0;fillColor=none;top=0;left=0;bottom=0;right=0;align=left;spacingLeft=6;" parent="456QCOrPQGaGzlS-YTAY-76" vertex="1">
          <mxGeometry x="30" width="305" height="30" as="geometry">
            <mxRectangle width="305" height="30" as="alternateBounds" />
          </mxGeometry>
        </mxCell>
        <mxCell id="456QCOrPQGaGzlS-YTAY-41" style="shape=partialRectangle;collapsible=0;dropTarget=0;pointerEvents=0;fillColor=none;points=[[0,0.5],[1,0.5]];portConstraint=eastwest;top=0;left=0;right=0;bottom=0;" parent="C-vyLk0tnHw3VtMMgP7b-23" vertex="1">
          <mxGeometry y="210" width="335" height="30" as="geometry" />
        </mxCell>
        <mxCell id="456QCOrPQGaGzlS-YTAY-42" style="shape=partialRectangle;overflow=hidden;connectable=0;fillColor=none;top=0;left=0;bottom=0;right=0;" parent="456QCOrPQGaGzlS-YTAY-41" vertex="1">
          <mxGeometry width="30" height="30" as="geometry">
            <mxRectangle width="30" height="30" as="alternateBounds" />
          </mxGeometry>
        </mxCell>
        <mxCell id="456QCOrPQGaGzlS-YTAY-43" value="created_at timestamp NOT NULL DEFAULT NOW()" style="shape=partialRectangle;overflow=hidden;connectable=0;fillColor=none;top=0;left=0;bottom=0;right=0;align=left;spacingLeft=6;" parent="456QCOrPQGaGzlS-YTAY-41" vertex="1">
          <mxGeometry x="30" width="305" height="30" as="geometry">
            <mxRectangle width="305" height="30" as="alternateBounds" />
          </mxGeometry>
        </mxCell>
        <mxCell id="456QCOrPQGaGzlS-YTAY-44" style="shape=partialRectangle;collapsible=0;dropTarget=0;pointerEvents=0;fillColor=none;points=[[0,0.5],[1,0.5]];portConstraint=eastwest;top=0;left=0;right=0;bottom=0;" parent="C-vyLk0tnHw3VtMMgP7b-23" vertex="1">
          <mxGeometry y="240" width="335" height="30" as="geometry" />
        </mxCell>
        <mxCell id="456QCOrPQGaGzlS-YTAY-45" style="shape=partialRectangle;overflow=hidden;connectable=0;fillColor=none;top=0;left=0;bottom=0;right=0;" parent="456QCOrPQGaGzlS-YTAY-44" vertex="1">
          <mxGeometry width="30" height="30" as="geometry">
            <mxRectangle width="30" height="30" as="alternateBounds" />
          </mxGeometry>
        </mxCell>
        <mxCell id="456QCOrPQGaGzlS-YTAY-46" value="updated_at timestamp NOT NULL" style="shape=partialRectangle;overflow=hidden;connectable=0;fillColor=none;top=0;left=0;bottom=0;right=0;align=left;spacingLeft=6;" parent="456QCOrPQGaGzlS-YTAY-44" vertex="1">
          <mxGeometry x="30" width="305" height="30" as="geometry">
            <mxRectangle width="305" height="30" as="alternateBounds" />
          </mxGeometry>
        </mxCell>
        <mxCell id="456QCOrPQGaGzlS-YTAY-16" value="" style="fontStyle=1;align=center;verticalAlign=middle;childLayout=stackLayout;horizontal=1;horizontalStack=0;resizeParent=1;resizeParentMax=0;resizeLast=0;marginBottom=0;rounded=0;" parent="1" vertex="1">
          <mxGeometry x="-710" y="300" width="200" height="90" as="geometry" />
        </mxCell>
        <mxCell id="456QCOrPQGaGzlS-YTAY-17" value="&amp;lt;&amp;lt;enumeration&amp;gt;&amp;gt;" style="html=1;align=center;spacing=0;verticalAlign=middle;strokeColor=none;fillColor=none;whiteSpace=wrap;" parent="456QCOrPQGaGzlS-YTAY-16" vertex="1">
          <mxGeometry width="200" height="20" as="geometry" />
        </mxCell>
        <mxCell id="456QCOrPQGaGzlS-YTAY-18" value="type_user" style="html=1;align=center;spacing=0;verticalAlign=middle;strokeColor=none;fillColor=none;whiteSpace=wrap;fontStyle=1;" parent="456QCOrPQGaGzlS-YTAY-16" vertex="1">
          <mxGeometry y="20" width="200" height="14" as="geometry" />
        </mxCell>
        <mxCell id="456QCOrPQGaGzlS-YTAY-19" value="" style="line;strokeWidth=0.25;fillColor=none;align=left;verticalAlign=middle;spacingTop=-1;spacingLeft=3;spacingRight=3;rotatable=0;labelPosition=right;points=[];portConstraint=eastwest;" parent="456QCOrPQGaGzlS-YTAY-16" vertex="1">
          <mxGeometry y="34" width="200" height="8" as="geometry" />
        </mxCell>
        <mxCell id="456QCOrPQGaGzlS-YTAY-20" value="FREELANCER" style="html=1;align=left;spacing=0;spacingLeft=8;verticalAlign=middle;strokeColor=none;fillColor=none;whiteSpace=wrap;" parent="456QCOrPQGaGzlS-YTAY-16" vertex="1">
          <mxGeometry y="42" width="200" height="16" as="geometry" />
        </mxCell>
        <mxCell id="456QCOrPQGaGzlS-YTAY-21" value="COMPANY" style="html=1;align=left;spacing=0;spacingLeft=8;verticalAlign=middle;strokeColor=none;fillColor=none;whiteSpace=wrap;" parent="456QCOrPQGaGzlS-YTAY-16" vertex="1">
          <mxGeometry y="58" width="200" height="16" as="geometry" />
        </mxCell>
        <mxCell id="456QCOrPQGaGzlS-YTAY-37" value="ADMIN" style="html=1;align=left;spacing=0;spacingLeft=8;verticalAlign=middle;strokeColor=none;fillColor=none;whiteSpace=wrap;" parent="456QCOrPQGaGzlS-YTAY-16" vertex="1">
          <mxGeometry y="74" width="200" height="16" as="geometry" />
        </mxCell>
        <mxCell id="456QCOrPQGaGzlS-YTAY-47" value="companies" style="shape=table;startSize=30;container=1;collapsible=1;childLayout=tableLayout;fixedRows=1;rowLines=0;fontStyle=1;align=center;resizeLast=1;" parent="1" vertex="1">
          <mxGeometry x="340" y="50" width="335" height="220" as="geometry" />
        </mxCell>
        <mxCell id="456QCOrPQGaGzlS-YTAY-48" value="" style="shape=partialRectangle;collapsible=0;dropTarget=0;pointerEvents=0;fillColor=none;points=[[0,0.5],[1,0.5]];portConstraint=eastwest;top=0;left=0;right=0;bottom=1;" parent="456QCOrPQGaGzlS-YTAY-47" vertex="1">
          <mxGeometry y="30" width="335" height="30" as="geometry" />
        </mxCell>
        <mxCell id="456QCOrPQGaGzlS-YTAY-49" value="PK" style="shape=partialRectangle;overflow=hidden;connectable=0;fillColor=none;top=0;left=0;bottom=0;right=0;fontStyle=1;" parent="456QCOrPQGaGzlS-YTAY-48" vertex="1">
          <mxGeometry width="30" height="30" as="geometry">
            <mxRectangle width="30" height="30" as="alternateBounds" />
          </mxGeometry>
        </mxCell>
        <mxCell id="456QCOrPQGaGzlS-YTAY-50" value="id UUID NOT NULL " style="shape=partialRectangle;overflow=hidden;connectable=0;fillColor=none;top=0;left=0;bottom=0;right=0;align=left;spacingLeft=6;fontStyle=5;" parent="456QCOrPQGaGzlS-YTAY-48" vertex="1">
          <mxGeometry x="30" width="305" height="30" as="geometry">
            <mxRectangle width="305" height="30" as="alternateBounds" />
          </mxGeometry>
        </mxCell>
        <mxCell id="456QCOrPQGaGzlS-YTAY-51" value="" style="shape=partialRectangle;collapsible=0;dropTarget=0;pointerEvents=0;fillColor=none;points=[[0,0.5],[1,0.5]];portConstraint=eastwest;top=0;left=0;right=0;bottom=0;" parent="456QCOrPQGaGzlS-YTAY-47" vertex="1">
          <mxGeometry y="60" width="335" height="30" as="geometry" />
        </mxCell>
        <mxCell id="456QCOrPQGaGzlS-YTAY-52" value="" style="shape=partialRectangle;overflow=hidden;connectable=0;fillColor=none;top=0;left=0;bottom=0;right=0;" parent="456QCOrPQGaGzlS-YTAY-51" vertex="1">
          <mxGeometry width="30" height="30" as="geometry">
            <mxRectangle width="30" height="30" as="alternateBounds" />
          </mxGeometry>
        </mxCell>
        <mxCell id="456QCOrPQGaGzlS-YTAY-53" value="name VARCHAR(50) NOT NULL UNIQUE" style="shape=partialRectangle;overflow=hidden;connectable=0;fillColor=none;top=0;left=0;bottom=0;right=0;align=left;spacingLeft=6;" parent="456QCOrPQGaGzlS-YTAY-51" vertex="1">
          <mxGeometry x="30" width="305" height="30" as="geometry">
            <mxRectangle width="305" height="30" as="alternateBounds" />
          </mxGeometry>
        </mxCell>
        <mxCell id="456QCOrPQGaGzlS-YTAY-54" style="shape=partialRectangle;collapsible=0;dropTarget=0;pointerEvents=0;fillColor=none;points=[[0,0.5],[1,0.5]];portConstraint=eastwest;top=0;left=0;right=0;bottom=0;" parent="456QCOrPQGaGzlS-YTAY-47" vertex="1">
          <mxGeometry y="90" width="335" height="30" as="geometry" />
        </mxCell>
        <mxCell id="456QCOrPQGaGzlS-YTAY-55" style="shape=partialRectangle;overflow=hidden;connectable=0;fillColor=none;top=0;left=0;bottom=0;right=0;" parent="456QCOrPQGaGzlS-YTAY-54" vertex="1">
          <mxGeometry width="30" height="30" as="geometry">
            <mxRectangle width="30" height="30" as="alternateBounds" />
          </mxGeometry>
        </mxCell>
        <mxCell id="456QCOrPQGaGzlS-YTAY-56" value="description VARCHAR(200) NOT NULL " style="shape=partialRectangle;overflow=hidden;connectable=0;fillColor=none;top=0;left=0;bottom=0;right=0;align=left;spacingLeft=6;" parent="456QCOrPQGaGzlS-YTAY-54" vertex="1">
          <mxGeometry x="30" width="305" height="30" as="geometry">
            <mxRectangle width="305" height="30" as="alternateBounds" />
          </mxGeometry>
        </mxCell>
        <mxCell id="456QCOrPQGaGzlS-YTAY-60" style="shape=partialRectangle;collapsible=0;dropTarget=0;pointerEvents=0;fillColor=none;points=[[0,0.5],[1,0.5]];portConstraint=eastwest;top=0;left=0;right=0;bottom=0;" parent="456QCOrPQGaGzlS-YTAY-47" vertex="1">
          <mxGeometry y="120" width="335" height="30" as="geometry" />
        </mxCell>
        <mxCell id="456QCOrPQGaGzlS-YTAY-61" value="FK" style="shape=partialRectangle;overflow=hidden;connectable=0;fillColor=none;top=0;left=0;bottom=0;right=0;" parent="456QCOrPQGaGzlS-YTAY-60" vertex="1">
          <mxGeometry width="30" height="30" as="geometry">
            <mxRectangle width="30" height="30" as="alternateBounds" />
          </mxGeometry>
        </mxCell>
        <mxCell id="456QCOrPQGaGzlS-YTAY-62" value="owner_id UUID NOT NULL" style="shape=partialRectangle;overflow=hidden;connectable=0;fillColor=none;top=0;left=0;bottom=0;right=0;align=left;spacingLeft=6;" parent="456QCOrPQGaGzlS-YTAY-60" vertex="1">
          <mxGeometry x="30" width="305" height="30" as="geometry">
            <mxRectangle width="305" height="30" as="alternateBounds" />
          </mxGeometry>
        </mxCell>
        <mxCell id="456QCOrPQGaGzlS-YTAY-69" style="shape=partialRectangle;collapsible=0;dropTarget=0;pointerEvents=0;fillColor=none;points=[[0,0.5],[1,0.5]];portConstraint=eastwest;top=0;left=0;right=0;bottom=0;" parent="456QCOrPQGaGzlS-YTAY-47" vertex="1">
          <mxGeometry y="150" width="335" height="30" as="geometry" />
        </mxCell>
        <mxCell id="456QCOrPQGaGzlS-YTAY-70" style="shape=partialRectangle;overflow=hidden;connectable=0;fillColor=none;top=0;left=0;bottom=0;right=0;" parent="456QCOrPQGaGzlS-YTAY-69" vertex="1">
          <mxGeometry width="30" height="30" as="geometry">
            <mxRectangle width="30" height="30" as="alternateBounds" />
          </mxGeometry>
        </mxCell>
        <mxCell id="456QCOrPQGaGzlS-YTAY-71" value="created_at timestamp NOT NULL DEFAULT NOW()" style="shape=partialRectangle;overflow=hidden;connectable=0;fillColor=none;top=0;left=0;bottom=0;right=0;align=left;spacingLeft=6;" parent="456QCOrPQGaGzlS-YTAY-69" vertex="1">
          <mxGeometry x="30" width="305" height="30" as="geometry">
            <mxRectangle width="305" height="30" as="alternateBounds" />
          </mxGeometry>
        </mxCell>
        <mxCell id="456QCOrPQGaGzlS-YTAY-72" style="shape=partialRectangle;collapsible=0;dropTarget=0;pointerEvents=0;fillColor=none;points=[[0,0.5],[1,0.5]];portConstraint=eastwest;top=0;left=0;right=0;bottom=0;" parent="456QCOrPQGaGzlS-YTAY-47" vertex="1">
          <mxGeometry y="180" width="335" height="30" as="geometry" />
        </mxCell>
        <mxCell id="456QCOrPQGaGzlS-YTAY-73" style="shape=partialRectangle;overflow=hidden;connectable=0;fillColor=none;top=0;left=0;bottom=0;right=0;" parent="456QCOrPQGaGzlS-YTAY-72" vertex="1">
          <mxGeometry width="30" height="30" as="geometry">
            <mxRectangle width="30" height="30" as="alternateBounds" />
          </mxGeometry>
        </mxCell>
        <mxCell id="456QCOrPQGaGzlS-YTAY-74" value="updated_at timestamp NOT NULL" style="shape=partialRectangle;overflow=hidden;connectable=0;fillColor=none;top=0;left=0;bottom=0;right=0;align=left;spacingLeft=6;" parent="456QCOrPQGaGzlS-YTAY-72" vertex="1">
          <mxGeometry x="30" width="305" height="30" as="geometry">
            <mxRectangle width="305" height="30" as="alternateBounds" />
          </mxGeometry>
        </mxCell>
        <mxCell id="456QCOrPQGaGzlS-YTAY-81" value="departments" style="shape=table;startSize=30;container=1;collapsible=1;childLayout=tableLayout;fixedRows=1;rowLines=0;fontStyle=1;align=center;resizeLast=1;" parent="1" vertex="1">
          <mxGeometry x="980" y="186" width="335" height="220" as="geometry" />
        </mxCell>
        <mxCell id="456QCOrPQGaGzlS-YTAY-82" value="" style="shape=partialRectangle;collapsible=0;dropTarget=0;pointerEvents=0;fillColor=none;points=[[0,0.5],[1,0.5]];portConstraint=eastwest;top=0;left=0;right=0;bottom=1;" parent="456QCOrPQGaGzlS-YTAY-81" vertex="1">
          <mxGeometry y="30" width="335" height="30" as="geometry" />
        </mxCell>
        <mxCell id="456QCOrPQGaGzlS-YTAY-83" value="PK" style="shape=partialRectangle;overflow=hidden;connectable=0;fillColor=none;top=0;left=0;bottom=0;right=0;fontStyle=1;" parent="456QCOrPQGaGzlS-YTAY-82" vertex="1">
          <mxGeometry width="30" height="30" as="geometry">
            <mxRectangle width="30" height="30" as="alternateBounds" />
          </mxGeometry>
        </mxCell>
        <mxCell id="456QCOrPQGaGzlS-YTAY-84" value="id UUID NOT NULL " style="shape=partialRectangle;overflow=hidden;connectable=0;fillColor=none;top=0;left=0;bottom=0;right=0;align=left;spacingLeft=6;fontStyle=5;" parent="456QCOrPQGaGzlS-YTAY-82" vertex="1">
          <mxGeometry x="30" width="305" height="30" as="geometry">
            <mxRectangle width="305" height="30" as="alternateBounds" />
          </mxGeometry>
        </mxCell>
        <mxCell id="456QCOrPQGaGzlS-YTAY-85" value="" style="shape=partialRectangle;collapsible=0;dropTarget=0;pointerEvents=0;fillColor=none;points=[[0,0.5],[1,0.5]];portConstraint=eastwest;top=0;left=0;right=0;bottom=0;" parent="456QCOrPQGaGzlS-YTAY-81" vertex="1">
          <mxGeometry y="60" width="335" height="30" as="geometry" />
        </mxCell>
        <mxCell id="456QCOrPQGaGzlS-YTAY-86" value="" style="shape=partialRectangle;overflow=hidden;connectable=0;fillColor=none;top=0;left=0;bottom=0;right=0;" parent="456QCOrPQGaGzlS-YTAY-85" vertex="1">
          <mxGeometry width="30" height="30" as="geometry">
            <mxRectangle width="30" height="30" as="alternateBounds" />
          </mxGeometry>
        </mxCell>
        <mxCell id="456QCOrPQGaGzlS-YTAY-87" value="name VARCHAR(50) NOT NULL" style="shape=partialRectangle;overflow=hidden;connectable=0;fillColor=none;top=0;left=0;bottom=0;right=0;align=left;spacingLeft=6;" parent="456QCOrPQGaGzlS-YTAY-85" vertex="1">
          <mxGeometry x="30" width="305" height="30" as="geometry">
            <mxRectangle width="305" height="30" as="alternateBounds" />
          </mxGeometry>
        </mxCell>
        <mxCell id="456QCOrPQGaGzlS-YTAY-88" style="shape=partialRectangle;collapsible=0;dropTarget=0;pointerEvents=0;fillColor=none;points=[[0,0.5],[1,0.5]];portConstraint=eastwest;top=0;left=0;right=0;bottom=0;" parent="456QCOrPQGaGzlS-YTAY-81" vertex="1">
          <mxGeometry y="90" width="335" height="30" as="geometry" />
        </mxCell>
        <mxCell id="456QCOrPQGaGzlS-YTAY-89" style="shape=partialRectangle;overflow=hidden;connectable=0;fillColor=none;top=0;left=0;bottom=0;right=0;" parent="456QCOrPQGaGzlS-YTAY-88" vertex="1">
          <mxGeometry width="30" height="30" as="geometry">
            <mxRectangle width="30" height="30" as="alternateBounds" />
          </mxGeometry>
        </mxCell>
        <mxCell id="456QCOrPQGaGzlS-YTAY-90" value="description VARCHAR(200)" style="shape=partialRectangle;overflow=hidden;connectable=0;fillColor=none;top=0;left=0;bottom=0;right=0;align=left;spacingLeft=6;" parent="456QCOrPQGaGzlS-YTAY-88" vertex="1">
          <mxGeometry x="30" width="305" height="30" as="geometry">
            <mxRectangle width="305" height="30" as="alternateBounds" />
          </mxGeometry>
        </mxCell>
        <mxCell id="456QCOrPQGaGzlS-YTAY-91" style="shape=partialRectangle;collapsible=0;dropTarget=0;pointerEvents=0;fillColor=none;points=[[0,0.5],[1,0.5]];portConstraint=eastwest;top=0;left=0;right=0;bottom=0;" parent="456QCOrPQGaGzlS-YTAY-81" vertex="1">
          <mxGeometry y="120" width="335" height="30" as="geometry" />
        </mxCell>
        <mxCell id="456QCOrPQGaGzlS-YTAY-92" value="FK" style="shape=partialRectangle;overflow=hidden;connectable=0;fillColor=none;top=0;left=0;bottom=0;right=0;" parent="456QCOrPQGaGzlS-YTAY-91" vertex="1">
          <mxGeometry width="30" height="30" as="geometry">
            <mxRectangle width="30" height="30" as="alternateBounds" />
          </mxGeometry>
        </mxCell>
        <mxCell id="456QCOrPQGaGzlS-YTAY-93" value="company_id UUID NOT NULL" style="shape=partialRectangle;overflow=hidden;connectable=0;fillColor=none;top=0;left=0;bottom=0;right=0;align=left;spacingLeft=6;" parent="456QCOrPQGaGzlS-YTAY-91" vertex="1">
          <mxGeometry x="30" width="305" height="30" as="geometry">
            <mxRectangle width="305" height="30" as="alternateBounds" />
          </mxGeometry>
        </mxCell>
        <mxCell id="456QCOrPQGaGzlS-YTAY-94" style="shape=partialRectangle;collapsible=0;dropTarget=0;pointerEvents=0;fillColor=none;points=[[0,0.5],[1,0.5]];portConstraint=eastwest;top=0;left=0;right=0;bottom=0;" parent="456QCOrPQGaGzlS-YTAY-81" vertex="1">
          <mxGeometry y="150" width="335" height="30" as="geometry" />
        </mxCell>
        <mxCell id="456QCOrPQGaGzlS-YTAY-95" style="shape=partialRectangle;overflow=hidden;connectable=0;fillColor=none;top=0;left=0;bottom=0;right=0;" parent="456QCOrPQGaGzlS-YTAY-94" vertex="1">
          <mxGeometry width="30" height="30" as="geometry">
            <mxRectangle width="30" height="30" as="alternateBounds" />
          </mxGeometry>
        </mxCell>
        <mxCell id="456QCOrPQGaGzlS-YTAY-96" value="created_at timestamp NOT NULL DEFAULT NOW()" style="shape=partialRectangle;overflow=hidden;connectable=0;fillColor=none;top=0;left=0;bottom=0;right=0;align=left;spacingLeft=6;" parent="456QCOrPQGaGzlS-YTAY-94" vertex="1">
          <mxGeometry x="30" width="305" height="30" as="geometry">
            <mxRectangle width="305" height="30" as="alternateBounds" />
          </mxGeometry>
        </mxCell>
        <mxCell id="456QCOrPQGaGzlS-YTAY-97" style="shape=partialRectangle;collapsible=0;dropTarget=0;pointerEvents=0;fillColor=none;points=[[0,0.5],[1,0.5]];portConstraint=eastwest;top=0;left=0;right=0;bottom=0;" parent="456QCOrPQGaGzlS-YTAY-81" vertex="1">
          <mxGeometry y="180" width="335" height="30" as="geometry" />
        </mxCell>
        <mxCell id="456QCOrPQGaGzlS-YTAY-98" style="shape=partialRectangle;overflow=hidden;connectable=0;fillColor=none;top=0;left=0;bottom=0;right=0;" parent="456QCOrPQGaGzlS-YTAY-97" vertex="1">
          <mxGeometry width="30" height="30" as="geometry">
            <mxRectangle width="30" height="30" as="alternateBounds" />
          </mxGeometry>
        </mxCell>
        <mxCell id="456QCOrPQGaGzlS-YTAY-99" value="updated_at timestamp NOT NULL" style="shape=partialRectangle;overflow=hidden;connectable=0;fillColor=none;top=0;left=0;bottom=0;right=0;align=left;spacingLeft=6;" parent="456QCOrPQGaGzlS-YTAY-97" vertex="1">
          <mxGeometry x="30" width="305" height="30" as="geometry">
            <mxRectangle width="305" height="30" as="alternateBounds" />
          </mxGeometry>
        </mxCell>
        <mxCell id="456QCOrPQGaGzlS-YTAY-101" value="job_vacancies" style="shape=table;startSize=30;container=1;collapsible=1;childLayout=tableLayout;fixedRows=1;rowLines=0;fontStyle=1;align=center;resizeLast=1;flipV=0;flipH=1;" parent="1" vertex="1">
          <mxGeometry x="980" y="630" width="335" height="250" as="geometry" />
        </mxCell>
        <mxCell id="456QCOrPQGaGzlS-YTAY-102" value="" style="shape=partialRectangle;collapsible=0;dropTarget=0;pointerEvents=0;fillColor=none;points=[[0,0.5],[1,0.5]];portConstraint=eastwest;top=0;left=0;right=0;bottom=1;" parent="456QCOrPQGaGzlS-YTAY-101" vertex="1">
          <mxGeometry y="30" width="335" height="30" as="geometry" />
        </mxCell>
        <mxCell id="456QCOrPQGaGzlS-YTAY-103" value="PK" style="shape=partialRectangle;overflow=hidden;connectable=0;fillColor=none;top=0;left=0;bottom=0;right=0;fontStyle=1;" parent="456QCOrPQGaGzlS-YTAY-102" vertex="1">
          <mxGeometry width="30" height="30" as="geometry">
            <mxRectangle width="30" height="30" as="alternateBounds" />
          </mxGeometry>
        </mxCell>
        <mxCell id="456QCOrPQGaGzlS-YTAY-104" value="id UUID NOT NULL " style="shape=partialRectangle;overflow=hidden;connectable=0;fillColor=none;top=0;left=0;bottom=0;right=0;align=left;spacingLeft=6;fontStyle=5;" parent="456QCOrPQGaGzlS-YTAY-102" vertex="1">
          <mxGeometry x="30" width="305" height="30" as="geometry">
            <mxRectangle width="305" height="30" as="alternateBounds" />
          </mxGeometry>
        </mxCell>
        <mxCell id="456QCOrPQGaGzlS-YTAY-105" value="" style="shape=partialRectangle;collapsible=0;dropTarget=0;pointerEvents=0;fillColor=none;points=[[0,0.5],[1,0.5]];portConstraint=eastwest;top=0;left=0;right=0;bottom=0;" parent="456QCOrPQGaGzlS-YTAY-101" vertex="1">
          <mxGeometry y="60" width="335" height="30" as="geometry" />
        </mxCell>
        <mxCell id="456QCOrPQGaGzlS-YTAY-106" value="" style="shape=partialRectangle;overflow=hidden;connectable=0;fillColor=none;top=0;left=0;bottom=0;right=0;" parent="456QCOrPQGaGzlS-YTAY-105" vertex="1">
          <mxGeometry width="30" height="30" as="geometry">
            <mxRectangle width="30" height="30" as="alternateBounds" />
          </mxGeometry>
        </mxCell>
        <mxCell id="456QCOrPQGaGzlS-YTAY-107" value="title VARCHAR(50) NOT NULL" style="shape=partialRectangle;overflow=hidden;connectable=0;fillColor=none;top=0;left=0;bottom=0;right=0;align=left;spacingLeft=6;" parent="456QCOrPQGaGzlS-YTAY-105" vertex="1">
          <mxGeometry x="30" width="305" height="30" as="geometry">
            <mxRectangle width="305" height="30" as="alternateBounds" />
          </mxGeometry>
        </mxCell>
        <mxCell id="456QCOrPQGaGzlS-YTAY-108" style="shape=partialRectangle;collapsible=0;dropTarget=0;pointerEvents=0;fillColor=none;points=[[0,0.5],[1,0.5]];portConstraint=eastwest;top=0;left=0;right=0;bottom=0;" parent="456QCOrPQGaGzlS-YTAY-101" vertex="1">
          <mxGeometry y="90" width="335" height="30" as="geometry" />
        </mxCell>
        <mxCell id="456QCOrPQGaGzlS-YTAY-109" style="shape=partialRectangle;overflow=hidden;connectable=0;fillColor=none;top=0;left=0;bottom=0;right=0;" parent="456QCOrPQGaGzlS-YTAY-108" vertex="1">
          <mxGeometry width="30" height="30" as="geometry">
            <mxRectangle width="30" height="30" as="alternateBounds" />
          </mxGeometry>
        </mxCell>
        <mxCell id="456QCOrPQGaGzlS-YTAY-110" value="description VARCHAR(200) NOT NULL" style="shape=partialRectangle;overflow=hidden;connectable=0;fillColor=none;top=0;left=0;bottom=0;right=0;align=left;spacingLeft=6;" parent="456QCOrPQGaGzlS-YTAY-108" vertex="1">
          <mxGeometry x="30" width="305" height="30" as="geometry">
            <mxRectangle width="305" height="30" as="alternateBounds" />
          </mxGeometry>
        </mxCell>
        <mxCell id="456QCOrPQGaGzlS-YTAY-147" style="shape=partialRectangle;collapsible=0;dropTarget=0;pointerEvents=0;fillColor=none;points=[[0,0.5],[1,0.5]];portConstraint=eastwest;top=0;left=0;right=0;bottom=0;" parent="456QCOrPQGaGzlS-YTAY-101" vertex="1">
          <mxGeometry y="120" width="335" height="30" as="geometry" />
        </mxCell>
        <mxCell id="456QCOrPQGaGzlS-YTAY-148" style="shape=partialRectangle;overflow=hidden;connectable=0;fillColor=none;top=0;left=0;bottom=0;right=0;" parent="456QCOrPQGaGzlS-YTAY-147" vertex="1">
          <mxGeometry width="30" height="30" as="geometry">
            <mxRectangle width="30" height="30" as="alternateBounds" />
          </mxGeometry>
        </mxCell>
        <mxCell id="456QCOrPQGaGzlS-YTAY-149" value="is_active BOOLEAN NOT NULL DEFAULT TRUE" style="shape=partialRectangle;overflow=hidden;connectable=0;fillColor=none;top=0;left=0;bottom=0;right=0;align=left;spacingLeft=6;" parent="456QCOrPQGaGzlS-YTAY-147" vertex="1">
          <mxGeometry x="30" width="305" height="30" as="geometry">
            <mxRectangle width="305" height="30" as="alternateBounds" />
          </mxGeometry>
        </mxCell>
        <mxCell id="456QCOrPQGaGzlS-YTAY-120" style="shape=partialRectangle;collapsible=0;dropTarget=0;pointerEvents=0;fillColor=none;points=[[0,0.5],[1,0.5]];portConstraint=eastwest;top=0;left=0;right=0;bottom=0;" parent="456QCOrPQGaGzlS-YTAY-101" vertex="1">
          <mxGeometry y="150" width="335" height="30" as="geometry" />
        </mxCell>
        <mxCell id="456QCOrPQGaGzlS-YTAY-121" value="FK" style="shape=partialRectangle;overflow=hidden;connectable=0;fillColor=none;top=0;left=0;bottom=0;right=0;" parent="456QCOrPQGaGzlS-YTAY-120" vertex="1">
          <mxGeometry width="30" height="30" as="geometry">
            <mxRectangle width="30" height="30" as="alternateBounds" />
          </mxGeometry>
        </mxCell>
        <mxCell id="456QCOrPQGaGzlS-YTAY-122" value="department_id UUID NOT NULL" style="shape=partialRectangle;overflow=hidden;connectable=0;fillColor=none;top=0;left=0;bottom=0;right=0;align=left;spacingLeft=6;" parent="456QCOrPQGaGzlS-YTAY-120" vertex="1">
          <mxGeometry x="30" width="305" height="30" as="geometry">
            <mxRectangle width="305" height="30" as="alternateBounds" />
          </mxGeometry>
        </mxCell>
        <mxCell id="456QCOrPQGaGzlS-YTAY-114" style="shape=partialRectangle;collapsible=0;dropTarget=0;pointerEvents=0;fillColor=none;points=[[0,0.5],[1,0.5]];portConstraint=eastwest;top=0;left=0;right=0;bottom=0;" parent="456QCOrPQGaGzlS-YTAY-101" vertex="1">
          <mxGeometry y="180" width="335" height="30" as="geometry" />
        </mxCell>
        <mxCell id="456QCOrPQGaGzlS-YTAY-115" style="shape=partialRectangle;overflow=hidden;connectable=0;fillColor=none;top=0;left=0;bottom=0;right=0;" parent="456QCOrPQGaGzlS-YTAY-114" vertex="1">
          <mxGeometry width="30" height="30" as="geometry">
            <mxRectangle width="30" height="30" as="alternateBounds" />
          </mxGeometry>
        </mxCell>
        <mxCell id="456QCOrPQGaGzlS-YTAY-116" value="created_at timestamp NOT NULL DEFAULT NOW()" style="shape=partialRectangle;overflow=hidden;connectable=0;fillColor=none;top=0;left=0;bottom=0;right=0;align=left;spacingLeft=6;" parent="456QCOrPQGaGzlS-YTAY-114" vertex="1">
          <mxGeometry x="30" width="305" height="30" as="geometry">
            <mxRectangle width="305" height="30" as="alternateBounds" />
          </mxGeometry>
        </mxCell>
        <mxCell id="456QCOrPQGaGzlS-YTAY-117" style="shape=partialRectangle;collapsible=0;dropTarget=0;pointerEvents=0;fillColor=none;points=[[0,0.5],[1,0.5]];portConstraint=eastwest;top=0;left=0;right=0;bottom=0;" parent="456QCOrPQGaGzlS-YTAY-101" vertex="1">
          <mxGeometry y="210" width="335" height="30" as="geometry" />
        </mxCell>
        <mxCell id="456QCOrPQGaGzlS-YTAY-118" style="shape=partialRectangle;overflow=hidden;connectable=0;fillColor=none;top=0;left=0;bottom=0;right=0;" parent="456QCOrPQGaGzlS-YTAY-117" vertex="1">
          <mxGeometry width="30" height="30" as="geometry">
            <mxRectangle width="30" height="30" as="alternateBounds" />
          </mxGeometry>
        </mxCell>
        <mxCell id="456QCOrPQGaGzlS-YTAY-119" value="updated_at timestamp NOT NULL" style="shape=partialRectangle;overflow=hidden;connectable=0;fillColor=none;top=0;left=0;bottom=0;right=0;align=left;spacingLeft=6;" parent="456QCOrPQGaGzlS-YTAY-117" vertex="1">
          <mxGeometry x="30" width="305" height="30" as="geometry">
            <mxRectangle width="305" height="30" as="alternateBounds" />
          </mxGeometry>
        </mxCell>
        <mxCell id="456QCOrPQGaGzlS-YTAY-125" value="freelancers" style="shape=table;startSize=30;container=1;collapsible=1;childLayout=tableLayout;fixedRows=1;rowLines=0;fontStyle=1;align=center;resizeLast=1;" parent="1" vertex="1">
          <mxGeometry x="-340" y="620" width="335" height="190" as="geometry" />
        </mxCell>
        <mxCell id="456QCOrPQGaGzlS-YTAY-126" value="" style="shape=partialRectangle;collapsible=0;dropTarget=0;pointerEvents=0;fillColor=none;points=[[0,0.5],[1,0.5]];portConstraint=eastwest;top=0;left=0;right=0;bottom=1;" parent="456QCOrPQGaGzlS-YTAY-125" vertex="1">
          <mxGeometry y="30" width="335" height="30" as="geometry" />
        </mxCell>
        <mxCell id="456QCOrPQGaGzlS-YTAY-127" value="PK" style="shape=partialRectangle;overflow=hidden;connectable=0;fillColor=none;top=0;left=0;bottom=0;right=0;fontStyle=1;" parent="456QCOrPQGaGzlS-YTAY-126" vertex="1">
          <mxGeometry width="30" height="30" as="geometry">
            <mxRectangle width="30" height="30" as="alternateBounds" />
          </mxGeometry>
        </mxCell>
        <mxCell id="456QCOrPQGaGzlS-YTAY-128" value="id UUID NOT NULL " style="shape=partialRectangle;overflow=hidden;connectable=0;fillColor=none;top=0;left=0;bottom=0;right=0;align=left;spacingLeft=6;fontStyle=5;" parent="456QCOrPQGaGzlS-YTAY-126" vertex="1">
          <mxGeometry x="30" width="305" height="30" as="geometry">
            <mxRectangle width="305" height="30" as="alternateBounds" />
          </mxGeometry>
        </mxCell>
        <mxCell id="456QCOrPQGaGzlS-YTAY-132" style="shape=partialRectangle;collapsible=0;dropTarget=0;pointerEvents=0;fillColor=none;points=[[0,0.5],[1,0.5]];portConstraint=eastwest;top=0;left=0;right=0;bottom=0;" parent="456QCOrPQGaGzlS-YTAY-125" vertex="1">
          <mxGeometry y="60" width="335" height="30" as="geometry" />
        </mxCell>
        <mxCell id="456QCOrPQGaGzlS-YTAY-133" style="shape=partialRectangle;overflow=hidden;connectable=0;fillColor=none;top=0;left=0;bottom=0;right=0;" parent="456QCOrPQGaGzlS-YTAY-132" vertex="1">
          <mxGeometry width="30" height="30" as="geometry">
            <mxRectangle width="30" height="30" as="alternateBounds" />
          </mxGeometry>
        </mxCell>
        <mxCell id="456QCOrPQGaGzlS-YTAY-134" value="bio TEXT " style="shape=partialRectangle;overflow=hidden;connectable=0;fillColor=none;top=0;left=0;bottom=0;right=0;align=left;spacingLeft=6;" parent="456QCOrPQGaGzlS-YTAY-132" vertex="1">
          <mxGeometry x="30" width="305" height="30" as="geometry">
            <mxRectangle width="305" height="30" as="alternateBounds" />
          </mxGeometry>
        </mxCell>
        <mxCell id="456QCOrPQGaGzlS-YTAY-135" style="shape=partialRectangle;collapsible=0;dropTarget=0;pointerEvents=0;fillColor=none;points=[[0,0.5],[1,0.5]];portConstraint=eastwest;top=0;left=0;right=0;bottom=0;" parent="456QCOrPQGaGzlS-YTAY-125" vertex="1">
          <mxGeometry y="90" width="335" height="30" as="geometry" />
        </mxCell>
        <mxCell id="456QCOrPQGaGzlS-YTAY-136" value="FK" style="shape=partialRectangle;overflow=hidden;connectable=0;fillColor=none;top=0;left=0;bottom=0;right=0;" parent="456QCOrPQGaGzlS-YTAY-135" vertex="1">
          <mxGeometry width="30" height="30" as="geometry">
            <mxRectangle width="30" height="30" as="alternateBounds" />
          </mxGeometry>
        </mxCell>
        <mxCell id="456QCOrPQGaGzlS-YTAY-137" value="user_id UUID NOT NULL" style="shape=partialRectangle;overflow=hidden;connectable=0;fillColor=none;top=0;left=0;bottom=0;right=0;align=left;spacingLeft=6;" parent="456QCOrPQGaGzlS-YTAY-135" vertex="1">
          <mxGeometry x="30" width="305" height="30" as="geometry">
            <mxRectangle width="305" height="30" as="alternateBounds" />
          </mxGeometry>
        </mxCell>
        <mxCell id="456QCOrPQGaGzlS-YTAY-138" style="shape=partialRectangle;collapsible=0;dropTarget=0;pointerEvents=0;fillColor=none;points=[[0,0.5],[1,0.5]];portConstraint=eastwest;top=0;left=0;right=0;bottom=0;" parent="456QCOrPQGaGzlS-YTAY-125" vertex="1">
          <mxGeometry y="120" width="335" height="30" as="geometry" />
        </mxCell>
        <mxCell id="456QCOrPQGaGzlS-YTAY-139" style="shape=partialRectangle;overflow=hidden;connectable=0;fillColor=none;top=0;left=0;bottom=0;right=0;" parent="456QCOrPQGaGzlS-YTAY-138" vertex="1">
          <mxGeometry width="30" height="30" as="geometry">
            <mxRectangle width="30" height="30" as="alternateBounds" />
          </mxGeometry>
        </mxCell>
        <mxCell id="456QCOrPQGaGzlS-YTAY-140" value="created_at timestamp NOT NULL DEFAULT NOW()" style="shape=partialRectangle;overflow=hidden;connectable=0;fillColor=none;top=0;left=0;bottom=0;right=0;align=left;spacingLeft=6;" parent="456QCOrPQGaGzlS-YTAY-138" vertex="1">
          <mxGeometry x="30" width="305" height="30" as="geometry">
            <mxRectangle width="305" height="30" as="alternateBounds" />
          </mxGeometry>
        </mxCell>
        <mxCell id="456QCOrPQGaGzlS-YTAY-141" style="shape=partialRectangle;collapsible=0;dropTarget=0;pointerEvents=0;fillColor=none;points=[[0,0.5],[1,0.5]];portConstraint=eastwest;top=0;left=0;right=0;bottom=0;" parent="456QCOrPQGaGzlS-YTAY-125" vertex="1">
          <mxGeometry y="150" width="335" height="30" as="geometry" />
        </mxCell>
        <mxCell id="456QCOrPQGaGzlS-YTAY-142" style="shape=partialRectangle;overflow=hidden;connectable=0;fillColor=none;top=0;left=0;bottom=0;right=0;" parent="456QCOrPQGaGzlS-YTAY-141" vertex="1">
          <mxGeometry width="30" height="30" as="geometry">
            <mxRectangle width="30" height="30" as="alternateBounds" />
          </mxGeometry>
        </mxCell>
        <mxCell id="456QCOrPQGaGzlS-YTAY-143" value="updated_at timestamp NOT NULL" style="shape=partialRectangle;overflow=hidden;connectable=0;fillColor=none;top=0;left=0;bottom=0;right=0;align=left;spacingLeft=6;" parent="456QCOrPQGaGzlS-YTAY-141" vertex="1">
          <mxGeometry x="30" width="305" height="30" as="geometry">
            <mxRectangle width="305" height="30" as="alternateBounds" />
          </mxGeometry>
        </mxCell>
        <mxCell id="456QCOrPQGaGzlS-YTAY-159" value="" style="edgeStyle=entityRelationEdgeStyle;fontSize=12;html=1;endArrow=ERmandOne;startArrow=ERmandOne;rounded=0;entryX=1;entryY=0.5;entryDx=0;entryDy=0;" parent="1" source="456QCOrPQGaGzlS-YTAY-135" target="C-vyLk0tnHw3VtMMgP7b-24" edge="1">
          <mxGeometry width="100" height="100" relative="1" as="geometry">
            <mxPoint x="660" y="750" as="sourcePoint" />
            <mxPoint x="650" y="550" as="targetPoint" />
          </mxGeometry>
        </mxCell>
        <mxCell id="456QCOrPQGaGzlS-YTAY-160" value="job_vacancies_applications" style="shape=table;startSize=30;container=1;collapsible=1;childLayout=tableLayout;fixedRows=1;rowLines=0;fontStyle=1;align=center;resizeLast=1;" parent="1" vertex="1">
          <mxGeometry x="342.5" y="940" width="335" height="220" as="geometry" />
        </mxCell>
        <mxCell id="456QCOrPQGaGzlS-YTAY-161" value="" style="shape=partialRectangle;collapsible=0;dropTarget=0;pointerEvents=0;fillColor=none;points=[[0,0.5],[1,0.5]];portConstraint=eastwest;top=0;left=0;right=0;bottom=1;" parent="456QCOrPQGaGzlS-YTAY-160" vertex="1">
          <mxGeometry y="30" width="335" height="30" as="geometry" />
        </mxCell>
        <mxCell id="456QCOrPQGaGzlS-YTAY-162" value="PK" style="shape=partialRectangle;overflow=hidden;connectable=0;fillColor=none;top=0;left=0;bottom=0;right=0;fontStyle=1;" parent="456QCOrPQGaGzlS-YTAY-161" vertex="1">
          <mxGeometry width="30" height="30" as="geometry">
            <mxRectangle width="30" height="30" as="alternateBounds" />
          </mxGeometry>
        </mxCell>
        <mxCell id="456QCOrPQGaGzlS-YTAY-163" value="id UUID NOT NULL " style="shape=partialRectangle;overflow=hidden;connectable=0;fillColor=none;top=0;left=0;bottom=0;right=0;align=left;spacingLeft=6;fontStyle=5;" parent="456QCOrPQGaGzlS-YTAY-161" vertex="1">
          <mxGeometry x="30" width="305" height="30" as="geometry">
            <mxRectangle width="305" height="30" as="alternateBounds" />
          </mxGeometry>
        </mxCell>
        <mxCell id="456QCOrPQGaGzlS-YTAY-182" style="shape=partialRectangle;collapsible=0;dropTarget=0;pointerEvents=0;fillColor=none;points=[[0,0.5],[1,0.5]];portConstraint=eastwest;top=0;left=0;right=0;bottom=0;" parent="456QCOrPQGaGzlS-YTAY-160" vertex="1">
          <mxGeometry y="60" width="335" height="30" as="geometry" />
        </mxCell>
        <mxCell id="456QCOrPQGaGzlS-YTAY-183" value="" style="shape=partialRectangle;overflow=hidden;connectable=0;fillColor=none;top=0;left=0;bottom=0;right=0;" parent="456QCOrPQGaGzlS-YTAY-182" vertex="1">
          <mxGeometry width="30" height="30" as="geometry">
            <mxRectangle width="30" height="30" as="alternateBounds" />
          </mxGeometry>
        </mxCell>
        <mxCell id="456QCOrPQGaGzlS-YTAY-184" value="status  job_applications_status NOT NULL" style="shape=partialRectangle;overflow=hidden;connectable=0;fillColor=none;top=0;left=0;bottom=0;right=0;align=left;spacingLeft=6;" parent="456QCOrPQGaGzlS-YTAY-182" vertex="1">
          <mxGeometry x="30" width="305" height="30" as="geometry">
            <mxRectangle width="305" height="30" as="alternateBounds" />
          </mxGeometry>
        </mxCell>
        <mxCell id="456QCOrPQGaGzlS-YTAY-164" value="" style="shape=partialRectangle;collapsible=0;dropTarget=0;pointerEvents=0;fillColor=none;points=[[0,0.5],[1,0.5]];portConstraint=eastwest;top=0;left=0;right=0;bottom=0;" parent="456QCOrPQGaGzlS-YTAY-160" vertex="1">
          <mxGeometry y="90" width="335" height="30" as="geometry" />
        </mxCell>
        <mxCell id="456QCOrPQGaGzlS-YTAY-165" value="FK" style="shape=partialRectangle;overflow=hidden;connectable=0;fillColor=none;top=0;left=0;bottom=0;right=0;" parent="456QCOrPQGaGzlS-YTAY-164" vertex="1">
          <mxGeometry width="30" height="30" as="geometry">
            <mxRectangle width="30" height="30" as="alternateBounds" />
          </mxGeometry>
        </mxCell>
        <mxCell id="456QCOrPQGaGzlS-YTAY-166" value="job_vacancies_id UUID NOT NULL" style="shape=partialRectangle;overflow=hidden;connectable=0;fillColor=none;top=0;left=0;bottom=0;right=0;align=left;spacingLeft=6;" parent="456QCOrPQGaGzlS-YTAY-164" vertex="1">
          <mxGeometry x="30" width="305" height="30" as="geometry">
            <mxRectangle width="305" height="30" as="alternateBounds" />
          </mxGeometry>
        </mxCell>
        <mxCell id="456QCOrPQGaGzlS-YTAY-173" style="shape=partialRectangle;collapsible=0;dropTarget=0;pointerEvents=0;fillColor=none;points=[[0,0.5],[1,0.5]];portConstraint=eastwest;top=0;left=0;right=0;bottom=0;" parent="456QCOrPQGaGzlS-YTAY-160" vertex="1">
          <mxGeometry y="120" width="335" height="30" as="geometry" />
        </mxCell>
        <mxCell id="456QCOrPQGaGzlS-YTAY-174" value="FK" style="shape=partialRectangle;overflow=hidden;connectable=0;fillColor=none;top=0;left=0;bottom=0;right=0;" parent="456QCOrPQGaGzlS-YTAY-173" vertex="1">
          <mxGeometry width="30" height="30" as="geometry">
            <mxRectangle width="30" height="30" as="alternateBounds" />
          </mxGeometry>
        </mxCell>
        <mxCell id="456QCOrPQGaGzlS-YTAY-175" value="freelancer_id UUID NOT NULL" style="shape=partialRectangle;overflow=hidden;connectable=0;fillColor=none;top=0;left=0;bottom=0;right=0;align=left;spacingLeft=6;" parent="456QCOrPQGaGzlS-YTAY-173" vertex="1">
          <mxGeometry x="30" width="305" height="30" as="geometry">
            <mxRectangle width="305" height="30" as="alternateBounds" />
          </mxGeometry>
        </mxCell>
        <mxCell id="456QCOrPQGaGzlS-YTAY-176" style="shape=partialRectangle;collapsible=0;dropTarget=0;pointerEvents=0;fillColor=none;points=[[0,0.5],[1,0.5]];portConstraint=eastwest;top=0;left=0;right=0;bottom=0;" parent="456QCOrPQGaGzlS-YTAY-160" vertex="1">
          <mxGeometry y="150" width="335" height="30" as="geometry" />
        </mxCell>
        <mxCell id="456QCOrPQGaGzlS-YTAY-177" style="shape=partialRectangle;overflow=hidden;connectable=0;fillColor=none;top=0;left=0;bottom=0;right=0;" parent="456QCOrPQGaGzlS-YTAY-176" vertex="1">
          <mxGeometry width="30" height="30" as="geometry">
            <mxRectangle width="30" height="30" as="alternateBounds" />
          </mxGeometry>
        </mxCell>
        <mxCell id="456QCOrPQGaGzlS-YTAY-178" value="created_at timestamp NOT NULL DEFAULT NOW()" style="shape=partialRectangle;overflow=hidden;connectable=0;fillColor=none;top=0;left=0;bottom=0;right=0;align=left;spacingLeft=6;" parent="456QCOrPQGaGzlS-YTAY-176" vertex="1">
          <mxGeometry x="30" width="305" height="30" as="geometry">
            <mxRectangle width="305" height="30" as="alternateBounds" />
          </mxGeometry>
        </mxCell>
        <mxCell id="456QCOrPQGaGzlS-YTAY-179" style="shape=partialRectangle;collapsible=0;dropTarget=0;pointerEvents=0;fillColor=none;points=[[0,0.5],[1,0.5]];portConstraint=eastwest;top=0;left=0;right=0;bottom=0;" parent="456QCOrPQGaGzlS-YTAY-160" vertex="1">
          <mxGeometry y="180" width="335" height="30" as="geometry" />
        </mxCell>
        <mxCell id="456QCOrPQGaGzlS-YTAY-180" style="shape=partialRectangle;overflow=hidden;connectable=0;fillColor=none;top=0;left=0;bottom=0;right=0;" parent="456QCOrPQGaGzlS-YTAY-179" vertex="1">
          <mxGeometry width="30" height="30" as="geometry">
            <mxRectangle width="30" height="30" as="alternateBounds" />
          </mxGeometry>
        </mxCell>
        <mxCell id="456QCOrPQGaGzlS-YTAY-181" value="updated_at timestamp NOT NULL" style="shape=partialRectangle;overflow=hidden;connectable=0;fillColor=none;top=0;left=0;bottom=0;right=0;align=left;spacingLeft=6;" parent="456QCOrPQGaGzlS-YTAY-179" vertex="1">
          <mxGeometry x="30" width="305" height="30" as="geometry">
            <mxRectangle width="305" height="30" as="alternateBounds" />
          </mxGeometry>
        </mxCell>
        <mxCell id="456QCOrPQGaGzlS-YTAY-190" value="" style="fontStyle=1;align=center;verticalAlign=middle;childLayout=stackLayout;horizontal=1;horizontalStack=0;resizeParent=1;resizeParentMax=0;resizeLast=0;marginBottom=0;rounded=0;" parent="1" vertex="1">
          <mxGeometry x="390" y="740" width="200" height="90" as="geometry" />
        </mxCell>
        <mxCell id="456QCOrPQGaGzlS-YTAY-191" value="&amp;lt;&amp;lt;enumeration&amp;gt;&amp;gt;" style="html=1;align=center;spacing=0;verticalAlign=middle;strokeColor=none;fillColor=none;whiteSpace=wrap;" parent="456QCOrPQGaGzlS-YTAY-190" vertex="1">
          <mxGeometry width="200" height="20" as="geometry" />
        </mxCell>
        <mxCell id="456QCOrPQGaGzlS-YTAY-192" value="job_applications_status" style="html=1;align=center;spacing=0;verticalAlign=middle;strokeColor=none;fillColor=none;whiteSpace=wrap;fontStyle=1;" parent="456QCOrPQGaGzlS-YTAY-190" vertex="1">
          <mxGeometry y="20" width="200" height="14" as="geometry" />
        </mxCell>
        <mxCell id="456QCOrPQGaGzlS-YTAY-193" value="" style="line;strokeWidth=0.25;fillColor=none;align=left;verticalAlign=middle;spacingTop=-1;spacingLeft=3;spacingRight=3;rotatable=0;labelPosition=right;points=[];portConstraint=eastwest;" parent="456QCOrPQGaGzlS-YTAY-190" vertex="1">
          <mxGeometry y="34" width="200" height="8" as="geometry" />
        </mxCell>
        <mxCell id="456QCOrPQGaGzlS-YTAY-194" value="REJEITADA" style="html=1;align=left;spacing=0;spacingLeft=8;verticalAlign=middle;strokeColor=none;fillColor=none;whiteSpace=wrap;" parent="456QCOrPQGaGzlS-YTAY-190" vertex="1">
          <mxGeometry y="42" width="200" height="16" as="geometry" />
        </mxCell>
        <mxCell id="456QCOrPQGaGzlS-YTAY-195" value="PENDENTE" style="html=1;align=left;spacing=0;spacingLeft=8;verticalAlign=middle;strokeColor=none;fillColor=none;whiteSpace=wrap;" parent="456QCOrPQGaGzlS-YTAY-190" vertex="1">
          <mxGeometry y="58" width="200" height="16" as="geometry" />
        </mxCell>
        <mxCell id="456QCOrPQGaGzlS-YTAY-196" value="ACEITA" style="html=1;align=left;spacing=0;spacingLeft=8;verticalAlign=middle;strokeColor=none;fillColor=none;whiteSpace=wrap;" parent="456QCOrPQGaGzlS-YTAY-190" vertex="1">
          <mxGeometry y="74" width="200" height="16" as="geometry" />
        </mxCell>
        <mxCell id="456QCOrPQGaGzlS-YTAY-201" value="" style="edgeStyle=entityRelationEdgeStyle;fontSize=12;html=1;endArrow=ERzeroToMany;startArrow=ERmandOne;rounded=0;exitX=1;exitY=0.5;exitDx=0;exitDy=0;entryX=0;entryY=0.5;entryDx=0;entryDy=0;" parent="1" source="C-vyLk0tnHw3VtMMgP7b-24" target="456QCOrPQGaGzlS-YTAY-60" edge="1">
          <mxGeometry width="100" height="100" relative="1" as="geometry">
            <mxPoint x="510" y="280" as="sourcePoint" />
            <mxPoint x="610" y="180" as="targetPoint" />
          </mxGeometry>
        </mxCell>
        <mxCell id="456QCOrPQGaGzlS-YTAY-205" value="" style="edgeStyle=entityRelationEdgeStyle;fontSize=12;html=1;endArrow=ERoneToMany;startArrow=ERmandOne;rounded=0;exitX=1;exitY=0.5;exitDx=0;exitDy=0;entryX=0;entryY=0.5;entryDx=0;entryDy=0;" parent="1" source="456QCOrPQGaGzlS-YTAY-48" target="456QCOrPQGaGzlS-YTAY-91" edge="1">
          <mxGeometry width="100" height="100" relative="1" as="geometry">
            <mxPoint x="750" y="500" as="sourcePoint" />
            <mxPoint x="850" y="400" as="targetPoint" />
          </mxGeometry>
        </mxCell>
        <mxCell id="456QCOrPQGaGzlS-YTAY-206" value="" style="edgeStyle=entityRelationEdgeStyle;fontSize=12;html=1;endArrow=ERzeroToMany;startArrow=ERmandOne;rounded=0;exitX=1;exitY=0.5;exitDx=0;exitDy=0;entryX=1;entryY=0.5;entryDx=0;entryDy=0;" parent="1" source="456QCOrPQGaGzlS-YTAY-82" target="456QCOrPQGaGzlS-YTAY-120" edge="1">
          <mxGeometry width="100" height="100" relative="1" as="geometry">
            <mxPoint x="1230" y="520" as="sourcePoint" />
            <mxPoint x="1330" y="420" as="targetPoint" />
          </mxGeometry>
        </mxCell>
        <mxCell id="456QCOrPQGaGzlS-YTAY-207" value="" style="edgeStyle=entityRelationEdgeStyle;fontSize=12;html=1;endArrow=ERzeroToMany;startArrow=ERmandOne;rounded=0;exitX=0;exitY=0.5;exitDx=0;exitDy=0;entryX=1;entryY=0.5;entryDx=0;entryDy=0;" parent="1" source="456QCOrPQGaGzlS-YTAY-102" target="456QCOrPQGaGzlS-YTAY-164" edge="1">
          <mxGeometry width="100" height="100" relative="1" as="geometry">
            <mxPoint x="1090" y="600" as="sourcePoint" />
            <mxPoint x="1190" y="500" as="targetPoint" />
          </mxGeometry>
        </mxCell>
        <mxCell id="456QCOrPQGaGzlS-YTAY-208" value="" style="edgeStyle=entityRelationEdgeStyle;fontSize=12;html=1;endArrow=ERzeroToMany;startArrow=ERmandOne;rounded=0;exitX=1;exitY=0.5;exitDx=0;exitDy=0;entryX=0;entryY=0.5;entryDx=0;entryDy=0;" parent="1" source="456QCOrPQGaGzlS-YTAY-126" target="456QCOrPQGaGzlS-YTAY-173" edge="1">
          <mxGeometry width="100" height="100" relative="1" as="geometry">
            <mxPoint x="1312" y="890" as="sourcePoint" />
            <mxPoint x="830" y="1060" as="targetPoint" />
          </mxGeometry>
        </mxCell>
        <mxCell id="456QCOrPQGaGzlS-YTAY-209" value="contracts" style="shape=table;startSize=30;container=1;collapsible=1;childLayout=tableLayout;fixedRows=1;rowLines=0;fontStyle=1;align=center;resizeLast=1;" parent="1" vertex="1">
          <mxGeometry x="340" y="440" width="340" height="250" as="geometry" />
        </mxCell>
        <mxCell id="456QCOrPQGaGzlS-YTAY-210" value="" style="shape=partialRectangle;collapsible=0;dropTarget=0;pointerEvents=0;fillColor=none;points=[[0,0.5],[1,0.5]];portConstraint=eastwest;top=0;left=0;right=0;bottom=1;" parent="456QCOrPQGaGzlS-YTAY-209" vertex="1">
          <mxGeometry y="30" width="340" height="30" as="geometry" />
        </mxCell>
        <mxCell id="456QCOrPQGaGzlS-YTAY-211" value="PK" style="shape=partialRectangle;overflow=hidden;connectable=0;fillColor=none;top=0;left=0;bottom=0;right=0;fontStyle=1;" parent="456QCOrPQGaGzlS-YTAY-210" vertex="1">
          <mxGeometry width="30" height="30" as="geometry">
            <mxRectangle width="30" height="30" as="alternateBounds" />
          </mxGeometry>
        </mxCell>
        <mxCell id="456QCOrPQGaGzlS-YTAY-212" value="id UUID NOT NULL " style="shape=partialRectangle;overflow=hidden;connectable=0;fillColor=none;top=0;left=0;bottom=0;right=0;align=left;spacingLeft=6;fontStyle=5;" parent="456QCOrPQGaGzlS-YTAY-210" vertex="1">
          <mxGeometry x="30" width="310" height="30" as="geometry">
            <mxRectangle width="310" height="30" as="alternateBounds" />
          </mxGeometry>
        </mxCell>
        <mxCell id="FbwIAAqjyUM19Jq7yKZ8-1" style="shape=partialRectangle;collapsible=0;dropTarget=0;pointerEvents=0;fillColor=none;points=[[0,0.5],[1,0.5]];portConstraint=eastwest;top=0;left=0;right=0;bottom=0;" vertex="1" parent="456QCOrPQGaGzlS-YTAY-209">
          <mxGeometry y="60" width="340" height="30" as="geometry" />
        </mxCell>
        <mxCell id="FbwIAAqjyUM19Jq7yKZ8-2" style="shape=partialRectangle;overflow=hidden;connectable=0;fillColor=none;top=0;left=0;bottom=0;right=0;" vertex="1" parent="FbwIAAqjyUM19Jq7yKZ8-1">
          <mxGeometry width="30" height="30" as="geometry">
            <mxRectangle width="30" height="30" as="alternateBounds" />
          </mxGeometry>
        </mxCell>
        <mxCell id="FbwIAAqjyUM19Jq7yKZ8-3" value="is_active BOOLEAN NOT NULL DEFAULT TRUE" style="shape=partialRectangle;overflow=hidden;connectable=0;fillColor=none;top=0;left=0;bottom=0;right=0;align=left;spacingLeft=6;" vertex="1" parent="FbwIAAqjyUM19Jq7yKZ8-1">
          <mxGeometry x="30" width="310" height="30" as="geometry">
            <mxRectangle width="310" height="30" as="alternateBounds" />
          </mxGeometry>
        </mxCell>
        <mxCell id="456QCOrPQGaGzlS-YTAY-216" value="" style="shape=partialRectangle;collapsible=0;dropTarget=0;pointerEvents=0;fillColor=none;points=[[0,0.5],[1,0.5]];portConstraint=eastwest;top=0;left=0;right=0;bottom=0;" parent="456QCOrPQGaGzlS-YTAY-209" vertex="1">
          <mxGeometry y="90" width="340" height="30" as="geometry" />
        </mxCell>
        <mxCell id="456QCOrPQGaGzlS-YTAY-217" value="FK" style="shape=partialRectangle;overflow=hidden;connectable=0;fillColor=none;top=0;left=0;bottom=0;right=0;" parent="456QCOrPQGaGzlS-YTAY-216" vertex="1">
          <mxGeometry width="30" height="30" as="geometry">
            <mxRectangle width="30" height="30" as="alternateBounds" />
          </mxGeometry>
        </mxCell>
        <mxCell id="456QCOrPQGaGzlS-YTAY-218" value="job_id UUID NOT NULL" style="shape=partialRectangle;overflow=hidden;connectable=0;fillColor=none;top=0;left=0;bottom=0;right=0;align=left;spacingLeft=6;" parent="456QCOrPQGaGzlS-YTAY-216" vertex="1">
          <mxGeometry x="30" width="310" height="30" as="geometry">
            <mxRectangle width="310" height="30" as="alternateBounds" />
          </mxGeometry>
        </mxCell>
        <mxCell id="456QCOrPQGaGzlS-YTAY-219" style="shape=partialRectangle;collapsible=0;dropTarget=0;pointerEvents=0;fillColor=none;points=[[0,0.5],[1,0.5]];portConstraint=eastwest;top=0;left=0;right=0;bottom=0;" parent="456QCOrPQGaGzlS-YTAY-209" vertex="1">
          <mxGeometry y="120" width="340" height="30" as="geometry" />
        </mxCell>
        <mxCell id="456QCOrPQGaGzlS-YTAY-220" value="FK" style="shape=partialRectangle;overflow=hidden;connectable=0;fillColor=none;top=0;left=0;bottom=0;right=0;" parent="456QCOrPQGaGzlS-YTAY-219" vertex="1">
          <mxGeometry width="30" height="30" as="geometry">
            <mxRectangle width="30" height="30" as="alternateBounds" />
          </mxGeometry>
        </mxCell>
        <mxCell id="456QCOrPQGaGzlS-YTAY-221" value="freelancer_id UUID NOT NULL" style="shape=partialRectangle;overflow=hidden;connectable=0;fillColor=none;top=0;left=0;bottom=0;right=0;align=left;spacingLeft=6;" parent="456QCOrPQGaGzlS-YTAY-219" vertex="1">
          <mxGeometry x="30" width="310" height="30" as="geometry">
            <mxRectangle width="310" height="30" as="alternateBounds" />
          </mxGeometry>
        </mxCell>
        <mxCell id="456QCOrPQGaGzlS-YTAY-213" style="shape=partialRectangle;collapsible=0;dropTarget=0;pointerEvents=0;fillColor=none;points=[[0,0.5],[1,0.5]];portConstraint=eastwest;top=0;left=0;right=0;bottom=0;" parent="456QCOrPQGaGzlS-YTAY-209" vertex="1">
          <mxGeometry y="150" width="340" height="30" as="geometry" />
        </mxCell>
        <mxCell id="456QCOrPQGaGzlS-YTAY-214" value="FK" style="shape=partialRectangle;overflow=hidden;connectable=0;fillColor=none;top=0;left=0;bottom=0;right=0;" parent="456QCOrPQGaGzlS-YTAY-213" vertex="1">
          <mxGeometry width="30" height="30" as="geometry">
            <mxRectangle width="30" height="30" as="alternateBounds" />
          </mxGeometry>
        </mxCell>
        <mxCell id="456QCOrPQGaGzlS-YTAY-215" value="department_id UUID NOT NULL" style="shape=partialRectangle;overflow=hidden;connectable=0;fillColor=none;top=0;left=0;bottom=0;right=0;align=left;spacingLeft=6;" parent="456QCOrPQGaGzlS-YTAY-213" vertex="1">
          <mxGeometry x="30" width="310" height="30" as="geometry">
            <mxRectangle width="310" height="30" as="alternateBounds" />
          </mxGeometry>
        </mxCell>
        <mxCell id="456QCOrPQGaGzlS-YTAY-222" style="shape=partialRectangle;collapsible=0;dropTarget=0;pointerEvents=0;fillColor=none;points=[[0,0.5],[1,0.5]];portConstraint=eastwest;top=0;left=0;right=0;bottom=0;" parent="456QCOrPQGaGzlS-YTAY-209" vertex="1">
          <mxGeometry y="180" width="340" height="30" as="geometry" />
        </mxCell>
        <mxCell id="456QCOrPQGaGzlS-YTAY-223" style="shape=partialRectangle;overflow=hidden;connectable=0;fillColor=none;top=0;left=0;bottom=0;right=0;" parent="456QCOrPQGaGzlS-YTAY-222" vertex="1">
          <mxGeometry width="30" height="30" as="geometry">
            <mxRectangle width="30" height="30" as="alternateBounds" />
          </mxGeometry>
        </mxCell>
        <mxCell id="456QCOrPQGaGzlS-YTAY-224" value="created_at timestamp NOT NULL DEFAULT NOW()" style="shape=partialRectangle;overflow=hidden;connectable=0;fillColor=none;top=0;left=0;bottom=0;right=0;align=left;spacingLeft=6;" parent="456QCOrPQGaGzlS-YTAY-222" vertex="1">
          <mxGeometry x="30" width="310" height="30" as="geometry">
            <mxRectangle width="310" height="30" as="alternateBounds" />
          </mxGeometry>
        </mxCell>
        <mxCell id="456QCOrPQGaGzlS-YTAY-225" style="shape=partialRectangle;collapsible=0;dropTarget=0;pointerEvents=0;fillColor=none;points=[[0,0.5],[1,0.5]];portConstraint=eastwest;top=0;left=0;right=0;bottom=0;" parent="456QCOrPQGaGzlS-YTAY-209" vertex="1">
          <mxGeometry y="210" width="340" height="30" as="geometry" />
        </mxCell>
        <mxCell id="456QCOrPQGaGzlS-YTAY-226" style="shape=partialRectangle;overflow=hidden;connectable=0;fillColor=none;top=0;left=0;bottom=0;right=0;" parent="456QCOrPQGaGzlS-YTAY-225" vertex="1">
          <mxGeometry width="30" height="30" as="geometry">
            <mxRectangle width="30" height="30" as="alternateBounds" />
          </mxGeometry>
        </mxCell>
        <mxCell id="456QCOrPQGaGzlS-YTAY-227" value="updated_at timestamp NOT NULL" style="shape=partialRectangle;overflow=hidden;connectable=0;fillColor=none;top=0;left=0;bottom=0;right=0;align=left;spacingLeft=6;" parent="456QCOrPQGaGzlS-YTAY-225" vertex="1">
          <mxGeometry x="30" width="310" height="30" as="geometry">
            <mxRectangle width="310" height="30" as="alternateBounds" />
          </mxGeometry>
        </mxCell>
        <mxCell id="456QCOrPQGaGzlS-YTAY-229" value="" style="edgeStyle=entityRelationEdgeStyle;fontSize=12;html=1;endArrow=ERzeroToMany;startArrow=ERmandOne;rounded=0;exitX=0;exitY=0.5;exitDx=0;exitDy=0;entryX=1;entryY=0.5;entryDx=0;entryDy=0;" parent="1" source="456QCOrPQGaGzlS-YTAY-102" target="456QCOrPQGaGzlS-YTAY-216" edge="1">
          <mxGeometry width="100" height="100" relative="1" as="geometry">
            <mxPoint x="1590" y="575" as="sourcePoint" />
            <mxPoint x="1175" y="1025" as="targetPoint" />
          </mxGeometry>
        </mxCell>
        <mxCell id="456QCOrPQGaGzlS-YTAY-230" value="" style="edgeStyle=entityRelationEdgeStyle;fontSize=12;html=1;endArrow=ERzeroToMany;startArrow=ERmandOne;rounded=0;exitX=1;exitY=0.5;exitDx=0;exitDy=0;" parent="1" source="456QCOrPQGaGzlS-YTAY-126" target="456QCOrPQGaGzlS-YTAY-219" edge="1">
          <mxGeometry width="100" height="100" relative="1" as="geometry">
            <mxPoint x="475" y="605" as="sourcePoint" />
            <mxPoint x="840" y="1055" as="targetPoint" />
          </mxGeometry>
        </mxCell>
        <mxCell id="456QCOrPQGaGzlS-YTAY-231" value="" style="edgeStyle=entityRelationEdgeStyle;fontSize=12;html=1;endArrow=ERzeroToMany;startArrow=ERmandOne;rounded=0;exitX=0;exitY=0.5;exitDx=0;exitDy=0;" parent="1" source="456QCOrPQGaGzlS-YTAY-82" target="456QCOrPQGaGzlS-YTAY-213" edge="1">
          <mxGeometry width="100" height="100" relative="1" as="geometry">
            <mxPoint x="475" y="605" as="sourcePoint" />
            <mxPoint x="860" y="585" as="targetPoint" />
          </mxGeometry>
        </mxCell>
        <mxCell id="456QCOrPQGaGzlS-YTAY-234" value="freelancers_specializations" style="shape=table;startSize=30;container=1;collapsible=1;childLayout=tableLayout;fixedRows=1;rowLines=0;fontStyle=1;align=center;resizeLast=1;" parent="1" vertex="1">
          <mxGeometry x="-780" y="880" width="335" height="190" as="geometry" />
        </mxCell>
        <mxCell id="456QCOrPQGaGzlS-YTAY-235" value="" style="shape=partialRectangle;collapsible=0;dropTarget=0;pointerEvents=0;fillColor=none;points=[[0,0.5],[1,0.5]];portConstraint=eastwest;top=0;left=0;right=0;bottom=1;" parent="456QCOrPQGaGzlS-YTAY-234" vertex="1">
          <mxGeometry y="30" width="335" height="30" as="geometry" />
        </mxCell>
        <mxCell id="456QCOrPQGaGzlS-YTAY-236" value="PK" style="shape=partialRectangle;overflow=hidden;connectable=0;fillColor=none;top=0;left=0;bottom=0;right=0;fontStyle=1;" parent="456QCOrPQGaGzlS-YTAY-235" vertex="1">
          <mxGeometry width="30" height="30" as="geometry">
            <mxRectangle width="30" height="30" as="alternateBounds" />
          </mxGeometry>
        </mxCell>
        <mxCell id="456QCOrPQGaGzlS-YTAY-237" value="id UUID NOT NULL " style="shape=partialRectangle;overflow=hidden;connectable=0;fillColor=none;top=0;left=0;bottom=0;right=0;align=left;spacingLeft=6;fontStyle=5;" parent="456QCOrPQGaGzlS-YTAY-235" vertex="1">
          <mxGeometry x="30" width="305" height="30" as="geometry">
            <mxRectangle width="305" height="30" as="alternateBounds" />
          </mxGeometry>
        </mxCell>
        <mxCell id="456QCOrPQGaGzlS-YTAY-238" value="" style="shape=partialRectangle;collapsible=0;dropTarget=0;pointerEvents=0;fillColor=none;points=[[0,0.5],[1,0.5]];portConstraint=eastwest;top=0;left=0;right=0;bottom=0;" parent="456QCOrPQGaGzlS-YTAY-234" vertex="1">
          <mxGeometry y="60" width="335" height="30" as="geometry" />
        </mxCell>
        <mxCell id="456QCOrPQGaGzlS-YTAY-239" value="FK" style="shape=partialRectangle;overflow=hidden;connectable=0;fillColor=none;top=0;left=0;bottom=0;right=0;" parent="456QCOrPQGaGzlS-YTAY-238" vertex="1">
          <mxGeometry width="30" height="30" as="geometry">
            <mxRectangle width="30" height="30" as="alternateBounds" />
          </mxGeometry>
        </mxCell>
        <mxCell id="456QCOrPQGaGzlS-YTAY-240" value="freelancer_id UUID NOT NULL" style="shape=partialRectangle;overflow=hidden;connectable=0;fillColor=none;top=0;left=0;bottom=0;right=0;align=left;spacingLeft=6;" parent="456QCOrPQGaGzlS-YTAY-238" vertex="1">
          <mxGeometry x="30" width="305" height="30" as="geometry">
            <mxRectangle width="305" height="30" as="alternateBounds" />
          </mxGeometry>
        </mxCell>
        <mxCell id="456QCOrPQGaGzlS-YTAY-241" style="shape=partialRectangle;collapsible=0;dropTarget=0;pointerEvents=0;fillColor=none;points=[[0,0.5],[1,0.5]];portConstraint=eastwest;top=0;left=0;right=0;bottom=0;" parent="456QCOrPQGaGzlS-YTAY-234" vertex="1">
          <mxGeometry y="90" width="335" height="30" as="geometry" />
        </mxCell>
        <mxCell id="456QCOrPQGaGzlS-YTAY-242" value="FK" style="shape=partialRectangle;overflow=hidden;connectable=0;fillColor=none;top=0;left=0;bottom=0;right=0;" parent="456QCOrPQGaGzlS-YTAY-241" vertex="1">
          <mxGeometry width="30" height="30" as="geometry">
            <mxRectangle width="30" height="30" as="alternateBounds" />
          </mxGeometry>
        </mxCell>
        <mxCell id="456QCOrPQGaGzlS-YTAY-243" value="specialization_id UUID NOT NULL" style="shape=partialRectangle;overflow=hidden;connectable=0;fillColor=none;top=0;left=0;bottom=0;right=0;align=left;spacingLeft=6;" parent="456QCOrPQGaGzlS-YTAY-241" vertex="1">
          <mxGeometry x="30" width="305" height="30" as="geometry">
            <mxRectangle width="305" height="30" as="alternateBounds" />
          </mxGeometry>
        </mxCell>
        <mxCell id="456QCOrPQGaGzlS-YTAY-247" style="shape=partialRectangle;collapsible=0;dropTarget=0;pointerEvents=0;fillColor=none;points=[[0,0.5],[1,0.5]];portConstraint=eastwest;top=0;left=0;right=0;bottom=0;" parent="456QCOrPQGaGzlS-YTAY-234" vertex="1">
          <mxGeometry y="120" width="335" height="30" as="geometry" />
        </mxCell>
        <mxCell id="456QCOrPQGaGzlS-YTAY-248" style="shape=partialRectangle;overflow=hidden;connectable=0;fillColor=none;top=0;left=0;bottom=0;right=0;" parent="456QCOrPQGaGzlS-YTAY-247" vertex="1">
          <mxGeometry width="30" height="30" as="geometry">
            <mxRectangle width="30" height="30" as="alternateBounds" />
          </mxGeometry>
        </mxCell>
        <mxCell id="456QCOrPQGaGzlS-YTAY-249" value="created_at timestamp NOT NULL DEFAULT NOW()" style="shape=partialRectangle;overflow=hidden;connectable=0;fillColor=none;top=0;left=0;bottom=0;right=0;align=left;spacingLeft=6;" parent="456QCOrPQGaGzlS-YTAY-247" vertex="1">
          <mxGeometry x="30" width="305" height="30" as="geometry">
            <mxRectangle width="305" height="30" as="alternateBounds" />
          </mxGeometry>
        </mxCell>
        <mxCell id="456QCOrPQGaGzlS-YTAY-250" style="shape=partialRectangle;collapsible=0;dropTarget=0;pointerEvents=0;fillColor=none;points=[[0,0.5],[1,0.5]];portConstraint=eastwest;top=0;left=0;right=0;bottom=0;" parent="456QCOrPQGaGzlS-YTAY-234" vertex="1">
          <mxGeometry y="150" width="335" height="30" as="geometry" />
        </mxCell>
        <mxCell id="456QCOrPQGaGzlS-YTAY-251" style="shape=partialRectangle;overflow=hidden;connectable=0;fillColor=none;top=0;left=0;bottom=0;right=0;" parent="456QCOrPQGaGzlS-YTAY-250" vertex="1">
          <mxGeometry width="30" height="30" as="geometry">
            <mxRectangle width="30" height="30" as="alternateBounds" />
          </mxGeometry>
        </mxCell>
        <mxCell id="456QCOrPQGaGzlS-YTAY-252" value="updated_at timestamp NOT NULL" style="shape=partialRectangle;overflow=hidden;connectable=0;fillColor=none;top=0;left=0;bottom=0;right=0;align=left;spacingLeft=6;" parent="456QCOrPQGaGzlS-YTAY-250" vertex="1">
          <mxGeometry x="30" width="305" height="30" as="geometry">
            <mxRectangle width="305" height="30" as="alternateBounds" />
          </mxGeometry>
        </mxCell>
        <mxCell id="456QCOrPQGaGzlS-YTAY-253" value="specializations" style="shape=table;startSize=30;container=1;collapsible=1;childLayout=tableLayout;fixedRows=1;rowLines=0;fontStyle=1;align=center;resizeLast=1;" parent="1" vertex="1">
          <mxGeometry x="-1220" y="620" width="335" height="190" as="geometry" />
        </mxCell>
        <mxCell id="456QCOrPQGaGzlS-YTAY-254" value="" style="shape=partialRectangle;collapsible=0;dropTarget=0;pointerEvents=0;fillColor=none;points=[[0,0.5],[1,0.5]];portConstraint=eastwest;top=0;left=0;right=0;bottom=1;" parent="456QCOrPQGaGzlS-YTAY-253" vertex="1">
          <mxGeometry y="30" width="335" height="30" as="geometry" />
        </mxCell>
        <mxCell id="456QCOrPQGaGzlS-YTAY-255" value="PK" style="shape=partialRectangle;overflow=hidden;connectable=0;fillColor=none;top=0;left=0;bottom=0;right=0;fontStyle=1;" parent="456QCOrPQGaGzlS-YTAY-254" vertex="1">
          <mxGeometry width="30" height="30" as="geometry">
            <mxRectangle width="30" height="30" as="alternateBounds" />
          </mxGeometry>
        </mxCell>
        <mxCell id="456QCOrPQGaGzlS-YTAY-256" value="id UUID NOT NULL " style="shape=partialRectangle;overflow=hidden;connectable=0;fillColor=none;top=0;left=0;bottom=0;right=0;align=left;spacingLeft=6;fontStyle=5;" parent="456QCOrPQGaGzlS-YTAY-254" vertex="1">
          <mxGeometry x="30" width="305" height="30" as="geometry">
            <mxRectangle width="305" height="30" as="alternateBounds" />
          </mxGeometry>
        </mxCell>
        <mxCell id="456QCOrPQGaGzlS-YTAY-257" value="" style="shape=partialRectangle;collapsible=0;dropTarget=0;pointerEvents=0;fillColor=none;points=[[0,0.5],[1,0.5]];portConstraint=eastwest;top=0;left=0;right=0;bottom=0;" parent="456QCOrPQGaGzlS-YTAY-253" vertex="1">
          <mxGeometry y="60" width="335" height="30" as="geometry" />
        </mxCell>
        <mxCell id="456QCOrPQGaGzlS-YTAY-258" value="" style="shape=partialRectangle;overflow=hidden;connectable=0;fillColor=none;top=0;left=0;bottom=0;right=0;" parent="456QCOrPQGaGzlS-YTAY-257" vertex="1">
          <mxGeometry width="30" height="30" as="geometry">
            <mxRectangle width="30" height="30" as="alternateBounds" />
          </mxGeometry>
        </mxCell>
        <mxCell id="456QCOrPQGaGzlS-YTAY-259" value="name VARCHAR(50) NOT NULL" style="shape=partialRectangle;overflow=hidden;connectable=0;fillColor=none;top=0;left=0;bottom=0;right=0;align=left;spacingLeft=6;" parent="456QCOrPQGaGzlS-YTAY-257" vertex="1">
          <mxGeometry x="30" width="305" height="30" as="geometry">
            <mxRectangle width="305" height="30" as="alternateBounds" />
          </mxGeometry>
        </mxCell>
        <mxCell id="456QCOrPQGaGzlS-YTAY-260" style="shape=partialRectangle;collapsible=0;dropTarget=0;pointerEvents=0;fillColor=none;points=[[0,0.5],[1,0.5]];portConstraint=eastwest;top=0;left=0;right=0;bottom=0;" parent="456QCOrPQGaGzlS-YTAY-253" vertex="1">
          <mxGeometry y="90" width="335" height="30" as="geometry" />
        </mxCell>
        <mxCell id="456QCOrPQGaGzlS-YTAY-261" value="" style="shape=partialRectangle;overflow=hidden;connectable=0;fillColor=none;top=0;left=0;bottom=0;right=0;" parent="456QCOrPQGaGzlS-YTAY-260" vertex="1">
          <mxGeometry width="30" height="30" as="geometry">
            <mxRectangle width="30" height="30" as="alternateBounds" />
          </mxGeometry>
        </mxCell>
        <mxCell id="456QCOrPQGaGzlS-YTAY-262" value="category VARCHAR(50)" style="shape=partialRectangle;overflow=hidden;connectable=0;fillColor=none;top=0;left=0;bottom=0;right=0;align=left;spacingLeft=6;" parent="456QCOrPQGaGzlS-YTAY-260" vertex="1">
          <mxGeometry x="30" width="305" height="30" as="geometry">
            <mxRectangle width="305" height="30" as="alternateBounds" />
          </mxGeometry>
        </mxCell>
        <mxCell id="456QCOrPQGaGzlS-YTAY-263" style="shape=partialRectangle;collapsible=0;dropTarget=0;pointerEvents=0;fillColor=none;points=[[0,0.5],[1,0.5]];portConstraint=eastwest;top=0;left=0;right=0;bottom=0;" parent="456QCOrPQGaGzlS-YTAY-253" vertex="1">
          <mxGeometry y="120" width="335" height="30" as="geometry" />
        </mxCell>
        <mxCell id="456QCOrPQGaGzlS-YTAY-264" style="shape=partialRectangle;overflow=hidden;connectable=0;fillColor=none;top=0;left=0;bottom=0;right=0;" parent="456QCOrPQGaGzlS-YTAY-263" vertex="1">
          <mxGeometry width="30" height="30" as="geometry">
            <mxRectangle width="30" height="30" as="alternateBounds" />
          </mxGeometry>
        </mxCell>
        <mxCell id="456QCOrPQGaGzlS-YTAY-265" value="created_at timestamp NOT NULL DEFAULT NOW()" style="shape=partialRectangle;overflow=hidden;connectable=0;fillColor=none;top=0;left=0;bottom=0;right=0;align=left;spacingLeft=6;" parent="456QCOrPQGaGzlS-YTAY-263" vertex="1">
          <mxGeometry x="30" width="305" height="30" as="geometry">
            <mxRectangle width="305" height="30" as="alternateBounds" />
          </mxGeometry>
        </mxCell>
        <mxCell id="456QCOrPQGaGzlS-YTAY-266" style="shape=partialRectangle;collapsible=0;dropTarget=0;pointerEvents=0;fillColor=none;points=[[0,0.5],[1,0.5]];portConstraint=eastwest;top=0;left=0;right=0;bottom=0;" parent="456QCOrPQGaGzlS-YTAY-253" vertex="1">
          <mxGeometry y="150" width="335" height="30" as="geometry" />
        </mxCell>
        <mxCell id="456QCOrPQGaGzlS-YTAY-267" style="shape=partialRectangle;overflow=hidden;connectable=0;fillColor=none;top=0;left=0;bottom=0;right=0;" parent="456QCOrPQGaGzlS-YTAY-266" vertex="1">
          <mxGeometry width="30" height="30" as="geometry">
            <mxRectangle width="30" height="30" as="alternateBounds" />
          </mxGeometry>
        </mxCell>
        <mxCell id="456QCOrPQGaGzlS-YTAY-268" value="updated_at timestamp NOT NULL" style="shape=partialRectangle;overflow=hidden;connectable=0;fillColor=none;top=0;left=0;bottom=0;right=0;align=left;spacingLeft=6;" parent="456QCOrPQGaGzlS-YTAY-266" vertex="1">
          <mxGeometry x="30" width="305" height="30" as="geometry">
            <mxRectangle width="305" height="30" as="alternateBounds" />
          </mxGeometry>
        </mxCell>
        <mxCell id="456QCOrPQGaGzlS-YTAY-273" value="" style="edgeStyle=entityRelationEdgeStyle;fontSize=12;html=1;endArrow=ERoneToMany;startArrow=ERoneToMany;rounded=0;exitX=1;exitY=0.5;exitDx=0;exitDy=0;entryX=0;entryY=0.5;entryDx=0;entryDy=0;" parent="1" source="456QCOrPQGaGzlS-YTAY-238" target="456QCOrPQGaGzlS-YTAY-126" edge="1">
          <mxGeometry width="100" height="100" relative="1" as="geometry">
            <mxPoint x="465" y="765" as="sourcePoint" />
            <mxPoint x="90" y="550" as="targetPoint" />
            <Array as="points">
              <mxPoint y="760" />
              <mxPoint x="20" y="760" />
            </Array>
          </mxGeometry>
        </mxCell>
        <mxCell id="456QCOrPQGaGzlS-YTAY-274" value="" style="edgeStyle=entityRelationEdgeStyle;fontSize=12;html=1;endArrow=ERoneToMany;startArrow=ERzeroToMany;rounded=0;exitX=1;exitY=0.5;exitDx=0;exitDy=0;entryX=0;entryY=0.5;entryDx=0;entryDy=0;" parent="1" source="456QCOrPQGaGzlS-YTAY-254" target="456QCOrPQGaGzlS-YTAY-241" edge="1">
          <mxGeometry width="100" height="100" relative="1" as="geometry">
            <mxPoint x="510" y="1030" as="sourcePoint" />
            <mxPoint x="610" y="930" as="targetPoint" />
            <Array as="points">
              <mxPoint x="430" y="1390" />
              <mxPoint x="80" y="1170" />
            </Array>
          </mxGeometry>
        </mxCell>
        <mxCell id="456QCOrPQGaGzlS-YTAY-285" value="" style="endArrow=none;dashed=1;html=1;dashPattern=1 3;strokeWidth=2;rounded=0;exitX=1;exitY=0.75;exitDx=0;exitDy=0;entryX=0;entryY=0.5;entryDx=0;entryDy=0;" parent="1" source="456QCOrPQGaGzlS-YTAY-17" target="456QCOrPQGaGzlS-YTAY-76" edge="1">
          <mxGeometry width="50" height="50" relative="1" as="geometry">
            <mxPoint x="-60" y="550" as="sourcePoint" />
            <mxPoint x="-10" y="500" as="targetPoint" />
          </mxGeometry>
        </mxCell>
        <mxCell id="456QCOrPQGaGzlS-YTAY-287" value="" style="endArrow=none;dashed=1;html=1;dashPattern=1 3;strokeWidth=2;rounded=0;entryX=0.5;entryY=1;entryDx=0;entryDy=0;exitX=0;exitY=0.5;exitDx=0;exitDy=0;" parent="1" source="456QCOrPQGaGzlS-YTAY-182" target="456QCOrPQGaGzlS-YTAY-196" edge="1">
          <mxGeometry width="50" height="50" relative="1" as="geometry">
            <mxPoint x="-20" y="750" as="sourcePoint" />
            <mxPoint x="30" y="700" as="targetPoint" />
            <Array as="points">
              <mxPoint x="320" y="980" />
              <mxPoint x="330" y="910" />
            </Array>
          </mxGeometry>
        </mxCell>
        <mxCell id="FbwIAAqjyUM19Jq7yKZ8-4" value="job_specializations" style="shape=table;startSize=30;container=1;collapsible=1;childLayout=tableLayout;fixedRows=1;rowLines=0;fontStyle=1;align=center;resizeLast=1;" vertex="1" parent="1">
          <mxGeometry x="-310" y="890" width="335" height="190" as="geometry" />
        </mxCell>
        <mxCell id="FbwIAAqjyUM19Jq7yKZ8-5" value="" style="shape=partialRectangle;collapsible=0;dropTarget=0;pointerEvents=0;fillColor=none;points=[[0,0.5],[1,0.5]];portConstraint=eastwest;top=0;left=0;right=0;bottom=1;" vertex="1" parent="FbwIAAqjyUM19Jq7yKZ8-4">
          <mxGeometry y="30" width="335" height="30" as="geometry" />
        </mxCell>
        <mxCell id="FbwIAAqjyUM19Jq7yKZ8-6" value="PK" style="shape=partialRectangle;overflow=hidden;connectable=0;fillColor=none;top=0;left=0;bottom=0;right=0;fontStyle=1;" vertex="1" parent="FbwIAAqjyUM19Jq7yKZ8-5">
          <mxGeometry width="30" height="30" as="geometry">
            <mxRectangle width="30" height="30" as="alternateBounds" />
          </mxGeometry>
        </mxCell>
        <mxCell id="FbwIAAqjyUM19Jq7yKZ8-7" value="id UUID NOT NULL " style="shape=partialRectangle;overflow=hidden;connectable=0;fillColor=none;top=0;left=0;bottom=0;right=0;align=left;spacingLeft=6;fontStyle=5;" vertex="1" parent="FbwIAAqjyUM19Jq7yKZ8-5">
          <mxGeometry x="30" width="305" height="30" as="geometry">
            <mxRectangle width="305" height="30" as="alternateBounds" />
          </mxGeometry>
        </mxCell>
        <mxCell id="FbwIAAqjyUM19Jq7yKZ8-11" value="" style="shape=partialRectangle;collapsible=0;dropTarget=0;pointerEvents=0;fillColor=none;points=[[0,0.5],[1,0.5]];portConstraint=eastwest;top=0;left=0;right=0;bottom=0;" vertex="1" parent="FbwIAAqjyUM19Jq7yKZ8-4">
          <mxGeometry y="60" width="335" height="30" as="geometry" />
        </mxCell>
        <mxCell id="FbwIAAqjyUM19Jq7yKZ8-12" value="FK" style="shape=partialRectangle;overflow=hidden;connectable=0;fillColor=none;top=0;left=0;bottom=0;right=0;" vertex="1" parent="FbwIAAqjyUM19Jq7yKZ8-11">
          <mxGeometry width="30" height="30" as="geometry">
            <mxRectangle width="30" height="30" as="alternateBounds" />
          </mxGeometry>
        </mxCell>
        <mxCell id="FbwIAAqjyUM19Jq7yKZ8-13" value="job_id UUID NOT NULL" style="shape=partialRectangle;overflow=hidden;connectable=0;fillColor=none;top=0;left=0;bottom=0;right=0;align=left;spacingLeft=6;" vertex="1" parent="FbwIAAqjyUM19Jq7yKZ8-11">
          <mxGeometry x="30" width="305" height="30" as="geometry">
            <mxRectangle width="305" height="30" as="alternateBounds" />
          </mxGeometry>
        </mxCell>
        <mxCell id="FbwIAAqjyUM19Jq7yKZ8-14" style="shape=partialRectangle;collapsible=0;dropTarget=0;pointerEvents=0;fillColor=none;points=[[0,0.5],[1,0.5]];portConstraint=eastwest;top=0;left=0;right=0;bottom=0;" vertex="1" parent="FbwIAAqjyUM19Jq7yKZ8-4">
          <mxGeometry y="90" width="335" height="30" as="geometry" />
        </mxCell>
        <mxCell id="FbwIAAqjyUM19Jq7yKZ8-15" value="FK" style="shape=partialRectangle;overflow=hidden;connectable=0;fillColor=none;top=0;left=0;bottom=0;right=0;" vertex="1" parent="FbwIAAqjyUM19Jq7yKZ8-14">
          <mxGeometry width="30" height="30" as="geometry">
            <mxRectangle width="30" height="30" as="alternateBounds" />
          </mxGeometry>
        </mxCell>
        <mxCell id="FbwIAAqjyUM19Jq7yKZ8-16" value="specialization_id UUID NOT NULL" style="shape=partialRectangle;overflow=hidden;connectable=0;fillColor=none;top=0;left=0;bottom=0;right=0;align=left;spacingLeft=6;" vertex="1" parent="FbwIAAqjyUM19Jq7yKZ8-14">
          <mxGeometry x="30" width="305" height="30" as="geometry">
            <mxRectangle width="305" height="30" as="alternateBounds" />
          </mxGeometry>
        </mxCell>
        <mxCell id="FbwIAAqjyUM19Jq7yKZ8-17" style="shape=partialRectangle;collapsible=0;dropTarget=0;pointerEvents=0;fillColor=none;points=[[0,0.5],[1,0.5]];portConstraint=eastwest;top=0;left=0;right=0;bottom=0;" vertex="1" parent="FbwIAAqjyUM19Jq7yKZ8-4">
          <mxGeometry y="120" width="335" height="30" as="geometry" />
        </mxCell>
        <mxCell id="FbwIAAqjyUM19Jq7yKZ8-18" style="shape=partialRectangle;overflow=hidden;connectable=0;fillColor=none;top=0;left=0;bottom=0;right=0;" vertex="1" parent="FbwIAAqjyUM19Jq7yKZ8-17">
          <mxGeometry width="30" height="30" as="geometry">
            <mxRectangle width="30" height="30" as="alternateBounds" />
          </mxGeometry>
        </mxCell>
        <mxCell id="FbwIAAqjyUM19Jq7yKZ8-19" value="created_at timestamp NOT NULL DEFAULT NOW()" style="shape=partialRectangle;overflow=hidden;connectable=0;fillColor=none;top=0;left=0;bottom=0;right=0;align=left;spacingLeft=6;" vertex="1" parent="FbwIAAqjyUM19Jq7yKZ8-17">
          <mxGeometry x="30" width="305" height="30" as="geometry">
            <mxRectangle width="305" height="30" as="alternateBounds" />
          </mxGeometry>
        </mxCell>
        <mxCell id="FbwIAAqjyUM19Jq7yKZ8-20" style="shape=partialRectangle;collapsible=0;dropTarget=0;pointerEvents=0;fillColor=none;points=[[0,0.5],[1,0.5]];portConstraint=eastwest;top=0;left=0;right=0;bottom=0;" vertex="1" parent="FbwIAAqjyUM19Jq7yKZ8-4">
          <mxGeometry y="150" width="335" height="30" as="geometry" />
        </mxCell>
        <mxCell id="FbwIAAqjyUM19Jq7yKZ8-21" style="shape=partialRectangle;overflow=hidden;connectable=0;fillColor=none;top=0;left=0;bottom=0;right=0;" vertex="1" parent="FbwIAAqjyUM19Jq7yKZ8-20">
          <mxGeometry width="30" height="30" as="geometry">
            <mxRectangle width="30" height="30" as="alternateBounds" />
          </mxGeometry>
        </mxCell>
        <mxCell id="FbwIAAqjyUM19Jq7yKZ8-22" value="updated_at timestamp NOT NULL" style="shape=partialRectangle;overflow=hidden;connectable=0;fillColor=none;top=0;left=0;bottom=0;right=0;align=left;spacingLeft=6;" vertex="1" parent="FbwIAAqjyUM19Jq7yKZ8-20">
          <mxGeometry x="30" width="305" height="30" as="geometry">
            <mxRectangle width="305" height="30" as="alternateBounds" />
          </mxGeometry>
        </mxCell>
        <mxCell id="FbwIAAqjyUM19Jq7yKZ8-23" value="" style="edgeStyle=entityRelationEdgeStyle;fontSize=12;html=1;endArrow=ERoneToMany;startArrow=ERzeroToMany;rounded=0;exitX=1;exitY=0.5;exitDx=0;exitDy=0;entryX=0;entryY=0.5;entryDx=0;entryDy=0;" edge="1" parent="1" source="456QCOrPQGaGzlS-YTAY-254" target="FbwIAAqjyUM19Jq7yKZ8-14">
          <mxGeometry width="100" height="100" relative="1" as="geometry">
            <mxPoint x="-875" y="675" as="sourcePoint" />
            <mxPoint x="-770" y="1025" as="targetPoint" />
            <Array as="points">
              <mxPoint x="440" y="1400" />
              <mxPoint x="90" y="1180" />
            </Array>
          </mxGeometry>
        </mxCell>
        <mxCell id="FbwIAAqjyUM19Jq7yKZ8-24" value="" style="edgeStyle=entityRelationEdgeStyle;fontSize=12;html=1;endArrow=ERoneToMany;startArrow=ERoneToMany;rounded=0;exitX=1;exitY=0.5;exitDx=0;exitDy=0;entryX=0;entryY=0.5;entryDx=0;entryDy=0;" edge="1" parent="1" source="FbwIAAqjyUM19Jq7yKZ8-11" target="456QCOrPQGaGzlS-YTAY-102">
          <mxGeometry width="100" height="100" relative="1" as="geometry">
            <mxPoint x="-435" y="995" as="sourcePoint" />
            <mxPoint x="980" y="680" as="targetPoint" />
            <Array as="points">
              <mxPoint x="10" y="770" />
              <mxPoint x="30" y="770" />
            </Array>
          </mxGeometry>
        </mxCell>
      </root>
    </mxGraphModel>
  </diagram>
</mxfile>
